/* XPM */
static char *e8779d6677d04632a07a0e82a97378f5jpVWzacJ9UXMrC0w[] = {
/* columns rows colors chars-per-pixel */
"128 128 40 1 ",
"  c #0F0C06",
". c #110D07",
"X c #130E09",
"o c #15110A",
"O c #1B150D",
"+ c #1F190E",
"@ c #1F1910",
"# c #201A0F",
"$ c #241D11",
"% c #251D12",
"& c #271F14",
"* c #281F13",
"= c #281F14",
"- c #272013",
"; c #272014",
": c #282013",
"> c #282015",
", c #2B2316",
"< c #2C2314",
"1 c #2D2314",
"2 c #2D2317",
"3 c #2F2517",
"4 c #2F2518",
"5 c #302617",
"6 c #332817",
"7 c #342817",
"8 c #312718",
"9 c #332819",
"0 c #362B1A",
"q c #362B1B",
"w c #372C1B",
"e c #382B1A",
"r c #382C1B",
"t c #3C2E1B",
"y c #392D1C",
"u c #3C2F1C",
"i c #3C301D",
"p c #3F321F",
"a c #3F3220",
"s c #403320",
/* pixels */
"oooOOOOo$#$$$$$$$$$>>:$-yyyyy098Xooooooo$$$$$;;>000rw005oooooooo$$$$$$$$$$$$$$$$$$$$$$$$11111111;;;;;;;;11111111$$$$$$**uuiiiiiu",
"oooOOOOo@@$$$$$$$$*:::--yyyyy098Xooooooo$$$$$;>>00rrr005oooooooo#$$$$$$$$$$$$$$$$$$$$$$$11111111;;;;;;;;11111111$$$$$$**uiiiiiiu",
"oooOOOOo@@$$$$$$$$$$**:>yyyyy008XooooooX$$$$$;>>0rrrr005oooooooo+$$$$$$$$$$$$$$$$$$$$$$$11111111;;;;;;;;11111111$$$$$$**uiiiiiii",
"oooOOOOo$@$$$$$$$$$$*:->yyyyyw08XXoooooX$$$$$;>>00wr0095oooooooo+$$$$$$$$$$$$$$$$$$$$$$$11111111;;;;;;;;11111111$$$$$$**iiiiiiii",
"oooOOOOo$$$$$$$$>::$$$->yyyyr095XooooooX$$$$->>-00000053oooooooo+$$$$$$$$$$$$$$$$$$$$$$$11111111;;;;;;;;11111111$$$$$$$$iiiiiaii",
"oooOOOOo$$$$$$$$>>**$$$-rrw00083Xooooooo$$$$;>-$09995553oooooooo#$$$$$$$$$$$$$$$$$$$$$$$11111111;;;;;;;;11111111$$$$$$$$iiiiiiii",
"oooOOOOo$$$$$$$$:>**$$$$00098833XooooooX$$$$>>$$55355331XXoooooo#$$$$$$$$$$++++$$$$$$$$$11333331;;;;;;;;11111111$$$$$$$-iiaiiiii",
"oooOOOOo$$$$$$$$*$$$$$$$98885333XooooooX$$$$>>$$3333331>XXXooooo#$$$$$$$$#++++++$$$$$$$$33433333>;;;;;;;11111111$$$$$$$-iiaiiiii",
"oooooooo+++$$$$$>>>>>;$$X.......oooooooo5500rr05oooooooX+++++++#80ryyyr0XXXXXXXX#$$$$$$$rryyyyrr+OOOOOOO11111111OOOOO+++rruuuurr",
"Xooooooo+++$$$$$>>>>>;$$...XXXXXoooooooo550rrr05oooooooo++++###$0ryuuyr0XXXXXXXX+$$$$$$$ryyyyyyy++OOOOOO11111111OOOOO+++rruuiuyr",
"Xooooooo+++$$$$$>>>>>;$$..XXXXXXoooooooo590ryy08oooooooo++#$$$$$ryyiiyr0oXXXXXXX+$$$$$$$ryyyyyyy++OOOOOO11111111OOOO++++rruuiuur",
"Xooooooo+++$$$$$>>>>>;$$..XXXXXooooooooo590ryr09oooooooo+#$$$$$$yyiiiur0oXooooXX#$$$$$$$yyyyyyyy++OOOOOO11111111OOOOO+++rruiuuur",
"Xooooooo+++$$$$$>>>>>;$$.XXXXooooooooooo590ruy09oooooooo+$$$$$$$yuiiiir0oXoooooX$$$$$$$$yyyyyyyy++OOOOOO11111111OOOO++++rruuiuyr",
"Xooooooo+++$$$$$>>>>>;$$.XXXXoXXoooooooo580ruy09oooooooo#$$$$$$$yuiiiir0oXoooooX$$$$$$$$yyyyyyyy++OOOOOO11111111OOOOO+++rruuiuyr",
"Xooooooo+++$$$$$>>>>>;$$.XXXXXXXoooooooo580yuy09oooooooo#$$$$$$$yuiiiiy0oooooooX$$$$$$$$ryyyyyyyOOOOOOOO11111111OOOOO+++rtiiiurr",
"Xooooooo+++$$$$$>>>>>;$$.XXXXXXXXXXooooX380yuyw0oooooooo#$$$$$$$yyiiiiy0oooooooX$$$$$$$$rryyyyyrOOOOOOOO11111111OOOOO+++rruuuurr",
"XXXooooX+++@$$$$$$$$$$$#oooooooo+++++###50wyiur0ooooooXX#$$$$$$$ryuiiiy0oXooooXX#$$$$$$$33333333OOOOOOOO11111111OOOOO+++yuiiiiiu",
"XXXooooX+++@$$$$$$$$$$$#oooooooX+++#$$$$00yuiur0ooooooXX#$$$$$$$ryuiiuy0oXooooXX#$$$$$$$13333333OOOOOOOO11111111OOOOO+++yuiiiiiu",
"XXXooooX+++@$$$$$$$$$$$#oooooooo++$$$$$$0yyiiur0ooooooXX#$$$$$$$ryuiiuy0oXooooXX#$$$$$$$11133111OOOOOOOO11111111OOOOO+++yuiiiiuy",
"XXXoooXX+++@$$$$$$$$$$$#oooooooo+$$$$$$$ryiiiur0ooooooXX#$$$$$$$ryyiiuy0ooooooXX#$$$$$$$11111111OOOOOOOO11113111OOOOOO++yyuuiiuy",
"XXXXXXXXOO+@$$$$$$$$$$$#oooooooo+$$$$$$$yyiiiur0ooooooXX$$$$$$$$ryyuiiy0ooooooXX#$$$$$$$11333311OOOOOOOO11133331OOOOOOOOryyuuyyy",
"XXXXXXXXOOO+$$$$$$$$$#$#oooooooo@$$$$$$*yyiiiur0ooooooXX#$$$$$$$rryuiuy0ooooooXX#$$$$$$$33333311OOOOOOOO>>333311OOOOOOOO0ryyyyyy",
"XXXXXXX.OOO++@$$$$$$$$$#oooooooo+$$$$$$$yyuiiur0ooooooXX#$$$$$$$rryuiuywooooooXX+$$$$$$$3333331>OOOooooO>>33331>OOOooooo90ryyyyy",
"XXXXXXX.OoOO++@+$$$$$$$#oooooooo$$$$$$$$yyuiiyr0ooooooXX#$$$$$$$rryyiuy0ooooooXX#$$$$$$$3443331>Oooooooo*>13331>Oooooooo50rrrryy",
"$$$$$$$@XXXooooo##$$$$#+oooooooo$&>111333388841>ooooooXX$$$$$$$$rrryuuy0ooooooXX@$$$$$$$rryyyr09XXXXXXXX80yyuy09oooooooo$>134443",
"$$$$$$$$oXoooooo+#$$$$#+oooooooo$&>111333338831>ooooooXX$$$$$$$$rrryyuy0ooooooXX@$$$$$$$ryyyyr00XXXoooXX90yiiyw9oooooooo$>>11431",
"$$$$$$$$oooooooo+#$#$$#+oooooooo$=>111133338431>ooooooXX$$$$$$$$rrryyyy0oooooooX$$$$$$$$ryyuuy09XXoooooX90yiiyw9oooooooo$=>11111",
"&$$$$$$$oooooooo++##$$#+oooooooo$=>111133343331>XoooooXX$$$$$$$$wrrryyr0oooooooX$$$$$$$$yyuiiyw9XXoooooX90yiiyr0oooooooo$=>11111",
";;;;&$$$ooooOooo++#$$$#+oooooooo&=>11111333333>=XXooooXX$$$$$$$$wrrryyr0oooooXXX$$$$$$$$yyiiiy09XXoooooX00yiiur0oooooooo$=>11111",
";;;;&$$$oooOOOoo++#$$$##oooooooX&>>11111133331>$XXoooXXX$$$$$$$$wrrryyr0oooooooX$$$$$$**yuiiiyr9XXoooooo00yiiur0oooooooo$=>11111",
";;;;;$$$oooOOOoo++#$$$$#ooooooXX&>>11111113331>$XXXXoXXX$$$$$$$$wrrrrrr0oooooXoX$$$$$$**yuiiiur9oXoooooo90yiiur0oooooooo$=>11111",
";;;;&$$$oooOOOoo++#$$$$#ooooooXo=>111111111311>$XXXXXXXX$$$$$$$$0wrrrrr0oooooooX$$$$$$$*yuiiiyr9oooooooX90yiiuy0oooooooo$=>11111",
"$$$$$$$$oooooooo$$$$$$$$$$$$$##$>>111111111111>&$$$$$$$$$$$$$$$$>>>>>>>$ooooOooo$$$$$$:>iiiiiir0oXoooooX90yuiyw9XXooooXX&=>11111",
"$$$$$$$$oooooooo$$$$$**:$$$$$$$$>1111111111111>>$$$$$$$$$$$$$$$$>>>>>>&$ooooOooo$$$$$$$>uiiiiir0oXoooooX80ryuy09XXooooXX&=>11111",
"$$$$$$$$oooooooo$$$$$$>:$$$$$$$$111111111111111>$$$$$$$$$$$$$$$$>>>>>>$$oooooooo$$$$$$::uiiiiur0oXoooooX80ryyy09XXooooXX&=>11111",
"$$$$$$$$oooooooo$$$$$$>>$$$$$$$$1111111111111111$$$$$$$$$$$$$$$$>>>>>;$$oooooooo$$$$$$::uiiiiyr0XXoooooX80ryyr08XXooooXX&=>11111",
";;;;$$$$oooooooo$$$$$$$:$$$$$$$$1111111111111111$$*===$$$$$$$$$$>>>>;;$$oooooooo$$$$$$-:yiiiiyr9XXoooooX500yyr08XXooooXX&=>11111",
";;-;$$$$oooooooo$$$$$$**$$$$$$$$1111311111111111$$$$**$$$$$$$$$$>>>>>&$$oooooooo$$$$$$$:yuiiuy09XXoooooX590rr005XXooooXX&=>11111",
"$$-$$$$$oooooooX@$$$$$$$$$$$$$$$1334333311111111$$$$*$$$$$$$$$$$>>>>>&$$oooooooo$$$$*:$-yyuiuy09XXoooooX590rr008XXooooXX$=>11111",
"$$$$$$$$ooooooXX@$$$$$$$$$$$$$$$3344444411111111$$&&**$$$$$$$$$$>>>>>;$$oooooooo$$$$$>**yyyuyy06XXoooooX590wr098XXooooXX$=>11111",
"$$:**$$$OOO++++O@$$$$$$$$$$$$$$$ryyyyyyr$$$$$$$$$$$$$$$$$$-;;;;->>>**$$$XXoooooX$$$$$$-:70ee7753XXoooooX$=>11>>&oooooooo+$$$$$$$",
"$$:>*$$$OOOO++++$$$$$$$$$$$$$$$$yyyyyyyy$$$$$$$$$$$$$$$$$$-$;;$$>>>:$$$$XXoooooX$$$$$$*:00007753XXoooooX$=>11>>&oooooooo#$$$$$$$",
"$$;>$$$$++++++++$$$$*$**$$$$$$$$yyyyyyyy$$$$$$$$$$$$$$$$$$$$$$$$=>$$$$$$XXoooooX@$$$$$$$00000753XXoooooX$>>11>>$oooooooo#$$$$$$$",
"$$>>$$$$@@@@@@@$$$$$=$$*$$$$$$$$yyuuiuuy*$$$$$$$$$$$$$$$$$$$$$$$$$$$$$$$XXoooooX@$$$$$$$70000753XXoooooX$>>11>>$oooooooo#$$$$$$$",
"$$$$$$$$$$$$$$$$$$$$>***$$$$$$$$yuiiiiuu*$$$$$$$$$$$$$$$$$$$$$$$$$$$$$$$XXoooooX@$$$$$$$77000753XXoooooX&=>11>>$oooooooo+$$$$$$$",
"$$$$$$$$$$$$$$$$$$$$&&$$$$$$$$$$yuiiiiiy**$$$$$$$$$$$$$$$$$$$$$$$$$$$$$$XXoooooX$$$$$$$$77000753XXoooooX&>>11>>$oooooooo#$$$$$$$",
"$$**>>$-$$$$$$$$$$$$$$$$$$$$$$$$yiiiiiiu**$$$$$$$$$$$$$$$$$$$$$$$$$$$$$$XXoooooX$$$$$$$$77700753XXoooooX$=>11>>$oooooooo#$$$$$$$",
"$$::>>>:$$$$$$$$$$$$$$$$$$$$$$$$yiiiiiiu**$$$$$$$$$$$$$$$$$$$$$$$$$$$$$$XXoooooX$$$$$$$$77777753XXoooooX$=>11>>$oooooooo#$$$$$$$",
"$$$$$$$$3333331>oooooooo$$$$$>>>yyuiiiuy$$$$#$$$$$$$$$$$XXXXXXXX15570653XXXoooXX$>133333$$$$$@++..XXXX..$=>11>>$XXoooooX$$$&>>>>",
"$$$$$$$$5538331>ooooOooo$$$$->>>yyiiiiuy$$$$#$$$$$$$$$$$XXXXXXXX13560653XXXoooXX=>133333$$@@$@++..XXXX..$=>11>>$XooooooX$$$&>>>>",
"$$$$$$$*5888831>ooooOOOo$$$$$>>>yuiiiiuy$$$$##$$$$$$$$$$XXXXoXXX13560653XXXoooXX=>138833$$$@$$+O..XXXX..$>>11>>$XXoooooX$$$&>>>>",
"$$$$$$$*3888831>oooOOOOo$$$$$>>>yuiiiiuy$#$$$#$$$$$$$$$$XXXoooXX13560653XXXooooX=>388883$$@$$@+O..XXXXX.$=>11>>&XXoooooX$$$&>>>>",
"$$$$$$**8888851>OOOOOOOo@$$$$&>>ruiiiiuy$###$$$$$$$$$$$$XXXoooXX13560653XXXooooX>>388443$$@+$@+O..XXXX..&=>111>*XXoooooX$$$&>>>>",
"$$$$$$**8888883>OOOOOOOO$$$$$$>>yuuiiiur##$$$$$$$$$$$$$$XXXoooXX13560753XXXooooX>>388843$$@@$@+O...XXX..&=>111>*XooooooX$$$&>>>>",
"$$$$$$**8888883>OOOOOOOO$$$$$>>>yyiiiuur$#######$$$$$$$$XXXoooXX13560653XXXooooX>>388884$$++$@++...XX...&&>11>>$XXoooooX$$$&>>>>",
"$$$$$$**8888983>OOOOOOOO$$$$->>>yuiiiur0###+++++$$$$$$$$XXXoooXX13560653XXXooooX>1388884$$++$$++........&=>11>>$XooooooX$$$&>>>>",
"::$*$-:>uiiiiiy0oooooooX$$$$$-:>uiiiiuy0oXXXXXXX5900w008oooooooo3800w008X.XXooXX>1388888++++OOOO$##+++++$>>11>>&Xooooooo$$$&>>>>",
":**$$*>>uiiiiiy0oooooooX$$$$$*:>uiiiiyr0XXXXXXXX3800w008oooooooo3800w005X.XoooXX>1389888+++OOOOO$$$#####>>111>>&Xooooooo$$$&>>>>",
"::$$$$:>uiiiiiy0oooooooX$$$$$$:>uiiiiy09XXoooXXX3800w008oooooooo3800w008XXXoooXX>1389888+++OOOOO$$$$$$$$>1111>>&Xooooooo$$$&>>>>",
"*:$$$$:>yiiiiiy0oooooooX$$$$$$:>uiiiiy00XoooooXX3800w008oooooooo38000008XXXXooXX>>388888++OOOOOO$$$$$$$$11111>>&Xooooooo$$$&;>>>",
"*$$$$$:>yiiiiiy0oooooooX$$$$$$:>uiiiiy09oooooooX3800w008oooooooo38000008XXXXooXX>1389888++OOOOOO$$$$$$$$11111>>$Xooooooo$$$&>>>>",
"*$$$$$:>uiiiiiy0oooooooX$$$$$$:>uiiiiy09oooooooX3800w008oooooooo3800w008XXXXoXXX>>389883+OOOOOOO$$$$$$$$11111>>$Xooooooo$$$&;>>>",
"$$$$$$:>uiiiiiy0oooooooX@$$$$$:>uiiiiy09oooooooX3800w008oooooooo38000008XXXoooXX>1489883OOOOOOOO$$$$$$$$11111>>$Xooooooo$$$&>>>>",
"$$$$$*:>uiiiiiy0oooooooX@$$$$*:>uiiiiy09oooooooX3800w008oooooooo35000008XXXXoXXX>1389831OOOoOOOO$$$$$$$$111111>$Xooooooo$$$&>>>>",
"$$$$$$*:yiiiiiy0oooooooo$$$;>>>>rrutrr05oooooooo$$$$$$$$oooooooo$$$$$$$$oooooooo50rrtre7XXXXXXXX$$&$$$>>>***$$$$Xooooooo$=>11111",
"$$$$$**:yuiiiir0oooooooo$$$;>>>>rrrurr95oooooooo$$$$$$$$oooooooo$$$$$$$$oooooooo50ertr05XXXXXXXX$$$$$$>*=*$$$$$$Xooooooo$=>11111",
"$$$$$$**yuiiiir0oooooooo$$$;>>>>rrturr05oooooooo$$$$$$$$oooooooo$$$$$$$$oooooooo50errr05XXXXXXXX$$$$$$$*$$$$$$$$Xooooooo$=>11111",
"$$$$$$**yuiiiir0oooooooo$$$;>>>>rrture05oooooooo$$$$$$$$oooooooo$$$$$$$$oooooooo50ertr05XXXooXXX$$$$$$$$$$$$$$$$Xooooooo$=>11111",
"$$$$$$$$uuiiiuy0oooooooo$$$>>>>>rrttrr05oooooooo@$$$$$$$oooooooo$$$$$$$$oooooooo50errr05XXXoooXX$$$$$$**$$**$$$$Xooooooo&=>11111",
"$$$$$$$$uiiiiir0oooooooo$$$>>>>>rrturr06oooooooo+@$$$$$$XXooooXo$$$$$$$$oooooooo50errr05XXooooXX$$$$$$**$$**$$$$Xooooooo&=>11111",
"$$$$$$$$yuiiiiy0oooooooo$$$>>>>>rrryrr07ooOooooo++@$$$$+XXoooooX$$$$$$$$oooooooo50rrrr05XXooooXX$$$$$$***>::$$$$Xooooooo&=>11111",
"$$$$$-*$yuiiiiy0oooooooo$$$;>>>>rrryrr00oOoooooX+++@$$++XXXXooXX$$$$$$$$oooooooo50rrrr05XXXoooXX$$$$$$*::>::$$$$Xooooooo&=>11111",
"$$$$$$:*iiiiiiy0oooOOOoo+#$$$$$$>>>331>>0w00631:XXoooooX+++@$$$$$$$$$$$$XXXXXXXX50ruur05oooooooo$$$$$$>:00000053oooooooo$=>11111",
"$$$$$$::iiiiiiy0oooOOOoo+#$$$$$$>>>3>>>>rrr09531XooooooX+++$$$$$$$$$$$$$XXXXXXXX50ryur06oooooooo$$$$$$:$00000053oooooooo$=>11111",
"$$$$$$$$iiiiiiy0oooOOOoo+#$$$$$$>>>>>>>>rrrr0951oooooooo+@$$$$$$$$$$$$$$XXXXXXXX50rrur06oooooooo$$$$$$$$00000053oooooooo$=>11111",
"$$$$$$$$iiiiiiy0oooOOOoo+#$$$$$$>>>>>>>>rrrrr053ooooOooo$$$$$$$$$$$$$$$$XXXXXXXX50rrure0oooooooo$$$$$$$$00000053oooooooo$=>11111",
"$$$$$$$$iiiiiiy0oooOOOoo+#$$$$$$>>>>>>>>rrrrrr95oooooooo$$$$$$$$$$$$$$$$XXXXXXXX50rrur07oooooooo$$$$$$$$00000053oooooooo$=>11331",
"$$$$$$$$uiiiaiy0oooOOOoo+#$$$$$$>>>>>>>>rrrrrr05oooooooo@$$$$$$$$$$$$$$$XXXXXXXX50ryur05oooooooo$$$$$$$$00000053oooooooo$>>13333",
"$$$$$$$$yiiiaiywoooOOOoo+#$$$$$$>>>>>>>>rtturr05oooooooo@$$$$$$$$$$$$$$@.XXXXXXX50rrur05oooooooo$$$$$$$$00000053oooooooo$>>33333",
"$$$$$$$$yuiaaiy0oooOOOoo+#$$$$$$>>>>>>>>rrturr05oooooooo@$$$$$$$$$$$$$++..XXXXXX50rrur08oooooooo$$$$**$$00000053oooooooo&>133333",
"oooooooo>388851>oooooooo$$$$$$$$$$$$$$$*ruuiur05X.XoooX.++#$$$$#XXXXXXXXOOO+++++0yiaaay0oooooooo$$$$$$$$rrrrw098oooooooo350rrrrr",
"oooooooo>138841>oooooooo$$$$$$$$$$$$$$$$ruiiur05X.XoooXX++#$$$$+XXXooXXXOOO+++++0yiasay0oooooooo$$$$$$$$rrrrw098oooooOoo570rrrrr",
"oooooooo>138831>oooooooo$$$$$$$$$$$$$$$$ruiiur05XXXoooXX+#$$$$#+XXooooXXO+++++@@yiissay0oooooooo$$$$$$$$rrrrw098ooooOooo590rrrrr",
"oooooooo>>3333>>oooooooo$$$$$$$$$$$$$$$$ruiiur05XXXoooXX++$$$$#+XXoooooX+++@@@$$yiassiy0oooooooo$$$$$$$$rrrrw098oooooooo50erutrr",
"oooOoooo>>3333>>oooooooo$$$$$$$$$$$$$$--ruiiuy05XXXoooXX++$$$$#+XooooooX++$$$$$$iisssiy0oooooooo$$$$$$$$rrrrr095oooooooo50rryyrr",
"ooOOoooo>>1331>=oooooooo$$$$$$;&$$$$$$:-ruuiur05XXXoooXX++$$$$#+XooooooX+@$$$$$$iasssiy0oooooooo$$$$$$$$rrrrr095oooooooo50rruurr",
"ooOOoooo>>1311>&oooooooo$$$$$$-$$$$$$$$-yuuiur05XXXoooXX++#$$$#+XooooXXX+@$$$$$$iisssiy0oooooooo$$$$$$$$rrrrr098ooooOooo50rruuuy",
"ooOOoooo=>1311>&oooooooo$$$$$$$$$$$$$$$$ruuiuy05XXXooXXX++#$$$#+XooooXXX+@$$$$$$iasssiy0oooooooo$$$$$$$&rrrrw098oooooooo50rriuuy",
"ooooooXX=>111>>&Xooooooo+#$$$$$$>>>>>>>>iiiiiuw9oooooooo35900095.XXXXXX.+@$$$$$$iasaiiy0oXooooXX$$$$$$>>00000083XXoooooX90yiiiii",
"ooooooXX=>1111>&Xooooooo+#$$$$$$>>>>>>>>iiiiiyw9ooooOooo35900095.XXXXXX.+@$$$$$$iasiiiy0oXoooooX$$$$$$>=00000083XXoooooX90yiiiii",
"ooooooXX=>111>>&Xooooooo++$$$$$$>>>>>>>>iiiiiyw9oooooooo35900005.XXXXXX.+@$$$$$$iaiiiiy0oXooooXX$$$$$$$&00000083XXoooooX90yiiiii",
"ooooooXX=>111>>&Xooooooo++$$$$$$>>>>>>>>iiiiiy09ooooOooo3590w008..XXXXX.+@@$$$$$iaiiiiy0XXooooXX$$$$$$$$00000083XXoooooX90yiiiii",
"ooooooXX=>111>>$Xooooooo+#$$$$$$>>>>>>>>uiiiiy09oooooooo35900008..XXXXX.+@$$$$$$iiiiiiy0XXooooXX$$$$$$$$00000083XXoooooX00yiiiii",
"ooooooXX>>111>>$Xooooooo+#$$$$$$>>>>>>>>iiiiiy09oooooooo35900008..XXXXX.+@$$$$$$iiisiiy0oXooooXX$$$$$$$$00000083XXoooooX00yiiiii",
"ooooooXX=>111>>$Xooooooo+#$$$$$$>>>>>>>>iiiiiy09oooOOOoo3590w008..XXXXX.+@$$$$$$iiisiiy0oXooooXX$$$-$$$$00000083XXoooooX00yiiiii",
"ooooooXX=>111>>$Xooooooo+#$$$$$$>>>>>>>>iiiiiy09oooOOOoo3590w008..XXXXX.+@$$$$$$iiiiaiy0oXooooXX$$$:**$$00000083XXoooooX00yiiiii",
"XooooXXX800rr095XXXoooX.++$$$$$$$$$$$:>>iiiiiy00.XXXoXXX$$$$$$$$oooooooX+$$$$$$$yuiiiyr0XXXoooXX$$$$-$$$$$$$$##+oooooooo80riiiiy",
"XooooXXX800rr005XXXXooXX+#$$$$$$$$$$$->>uiiiiy00XXXXoXXX$$$$$$$$oXoooooX+$$$$$$$yuiiiyr0XXooooXX$$$$;;$$$$$$$$#+oooooooo50ruiiiu",
"XooooXXX80wrr005XXXoooXX+#$$$$$$**$$$-:>uiiiiy08XXXXoXXX@$$$$$$$oooooooX+$$$$$$$uuiiiyw9XXXoooXX$$$$;;$$$$$$#$#+oooooooo50ruiiuy",
"XooooXXX80wyyw08XXXoooXX++$$$$$$*$$$$->>uiiiiy09XXXXoXXX@$$$$$$$XXoooooX+$$$$$$$yuiiiyw9XXXoooXX$$$$;;&$$$$$$##+oooooooo50ryiiuy",
"XooooXXX80ryyr08XXXXXXXX+#$$$$$$**$$$-:>yiiiur09XXXXXXXX@$$$$$$$XXoooooX+$$$$$$$yuiiiyw9XXooooXX$$$$$$$$$$$$$##+oooooooo59ryyuyy",
"XooooXXX90ryyr08XXXXXXXX+#$$$$$$**$$$$:>yuiiur08XXXXXXXX$$$$$$$$XXooooXX+$$$$$$$yyuiuy09XXXoooXX$$$$$$$$$$$$$##+Xooooooo590ryyrr",
"XooooXXX90ryyr09XXXXXXXX+#$$$$$$***$$*:>yyuiyr08XXXXXXXX$$$$$$$$XXXXXXXX+#$$$$$$ryuuur09XXooooXX$$$$$$$$$#$$$##+XoooooXX3500w000",
"XooooXXX80ryyy00XXXXXXX.+#$$$$$$**$$$$>>yyyyyw08XXXXoXXX$$$$$$$$XXXXXXXX+$$$$$$$ryyuyr09XXooooXX$$$$$$$$##$$$##+XXooooXX13809999",
"oooooooo$$>>>>;$@+++++O+$$$$==$$$$$$$$$$333331>$OOOOOOOO$$$$;;$$$$$$$$$$##$$$##$**::**$$XXooooXX$$$$--$$0000075353333331.XXXXXXX",
"oooooooo$$>>>>>$@@++++++$$$$==$$$$$$$$$$33333>>$oOOOOOOO$$$$;&&$$$$$$$$$#$$$$##$****$$$$XXooooXX$$$$;--$0000009598888833XXXXXXXX",
"oooooooo$$$>>>>;$$@@@@@@$$*$==$$$$$$$$$$33331>>$oOOOOOOO$$$$;>>;$$$$$$$$$$$$$$##$$$$$$$$XXooooXX$$$$;;$$0000000900000985XXXXXXXX",
"oooooooo$$;>>>>>$$$$$$$$$$****$$$$$$$$$$13331>=$oOOOOOOO$$$$;>>>&$$$$$$$$$$$$$$#$$$$$$$$XXoooooX$$$$;;$$00000000w0000098XXXXXXXX",
"oooooooo$$$>>>>>$$$$$$$$$$$$$$$$$$$$$$$$11111>=$oOOOOOOO$$$$&;;;;;;&&&;;$$$$$$$$$$$$$$$$XXooooXX$$$$$$$$00000000w0000098XXXXoXXX",
"oooooooo$$$>>>>;$$$$$$$$$$$$$$$$$$$$$$$$11111>=$oOOOOOOO$$$$$$&&&;;;;;;;$$$$$$$$$$$$$$$$XXooooXX$$$$$$$$0000006900000983XXXXXXXX",
"oooooooo$$$&;;;;$$$$$$$$$$$$$$$$$$$$$$$$11111>=$oOOOOOOO$$$$$$$$$$>>-;-$$$$$##$$$$$$$$$$XXooooXX$$$$$$$$0000005588888531..XXXXXX",
"oooooooo$$$&;;;;$$$$$$$$$$$$$$$$$$$$$$$$11111>=$oOOOOOOo$@@$$$$$$$;>:::-$$$#####$$$$$$$$XXooooXX$$$$$$$$000008513333331> .XXXXXX",
"XXoooXXX$$$$$$$$rrrrr093XXXXXXXX$$$$$$$$11111>=&oOOOOOOOXXXXXXXX56000000$$$$$$$$rrrrr005XXXoooX.+#$$$$$$11111>&&XXXXXXXXOO++++++",
"XooooXXX$$$$$$$$rrrrr083XXXoooXX$$$$$$$$11111>=&oOOOOOOOoXXXXXXX56000000$$$$$$$$rrrrr005XXXoooXX+#$$$$$$1111>>&$XXoooXXX++++###$",
"XXoooXXX@$$$$$$$rrrrr093XooooooX$$$$*$$$11111>=&oOOOOOOOoooooXXX56000000$$$$$$$$rrrrrw05XXXoooXX+#$$$$$$11111>&&XoooooXX++#$$$$$",
"XXoooXXX@$$$$$$$rrryrr05oooooooo$$$$>$$$11111>=&oOOOOOOOooooooXX56000000$$$$$$$$rrrrrr05XXXoooXX+#$$$$$$11111>&&XoooooXX+@$$$$$$",
"XXooXXXX$$$$$$$$rryyyr05oooooooo$$$$>:::11111>&$oOOOOOOOooooooXX57000000$$$$$$$-rrryrr08XXXoooXX+#$$$$$$1111>>$$XoooooXX+$$$$$$$",
"XXXXXXXX$$$$$$$$ryuuyr08oooooooo$$$$::*:11111>=$oOOOOOOOooooooXX57000000$$$$$$$-rrrrrr08XXXoooXX+#$$$$$$1111>>$$XXooooXX+$$$$$$$",
".XXXXXXX$$$$$$$*ryuiur08oooooooo$$$$$$**11111>=$ooOOOOOOooooooXo56000000$$$$$$$$rrrrrr05XXXoooXX+#$$$$$$11111>$$XXXooXXX+$$$$$$$",
"..XXXXXX$$$$$$$$ryuiur08oooooooo$$$$$$$$11111>>*ooooooooooooooXX56000000$$$$$$$$rrrrrw05XXXoooXX+#$$$$$$11111>$$XXXXXXXX+$$$$$$$",
"O+++++++$$$$$$$$8888851>oooooooX+#$$$$$$$$$$$$$$$$##++++Xooooooo$$$$***$:$$$$$$-$$$$$$$$..XXXX..#$$$$$$$$$$$$$$+++++++++$>>11111",
"++++++@@$$$$$$$$3888831>oooooooX##$$$$$$$$$$$$$$$$$$$@++Xooooooo$$$$**$$*$$$$$$-$$$$$$$$..XXXX..#$$$$$$$$$$$$$$$########>>111111",
"$@$$@@@$$$$$$$**3888831>oooooooo#$$$$$$$$$$$$$$$$$$$$$$#Xooooooo$$$$$$$$::$$$$**$$$$$$$$..XXXX..#$$$$$$$$$$$$$$$$$$$$$$$>1111111",
"$$$$$$$$$$$$$$$*388883>>Xooooooo$$$$$$$$$$$$$$$$$$$$$$$$oooooooo$$$$$$$$*$$$$$$*$$$$$$$$..XXXX..#$$$$$$$$$$$$$$$$$$$$$$$11111111",
"$$$$$$$$$$$$$$$*338853>=Xooooooo$$$$$$$$$$$$$$$$$$$$$$$$oooooooo$$$$$$$$*:$$$$**$$$$$$$$..XXXX..#$$$$$$$$$$$$$$$$$$$$$$$11111111",
"$$$$$$$$$$$$$$$$333331>$XXoooooo$$$$$$$$$$$$$$$$$$$$$$$$oooooooo$$$$$$$$>>$$$$::$$$$$$$#..XXXX..#$$$$$$$$$$$$$$$$$$$$$$$11111111",
"$$$$$$$$$$$$$$$$333331>$XXoooooo$$$$$$$$$$$$$$$$$$$$$$$$oooooooo$$$$$$$$:**$$*:>$$$$$$$#...XXX..#$$$$$$$$$$$$$$$$$$$$$$$11111111",
"$$$$$$$$$$$$$$$$33333>>$Xooooooo$$$$$$$$$$$$$$$$$$$$$$$$oooooooo$$$$$$$$::$$$$>>$$$$$$$#...XXX..#$$$$$$$$$$$$$$$$$$$$$$$11111111"
};
