/* XPM */
static char *deb9605760e54885a35d23febbf682d9oomYrKy69UsnCBt9[] = {
/* columns rows colors chars-per-pixel */
"128 128 64 1 ",
"  c #1D170F",
". c #20190F",
"X c #261E12",
"o c #281F13",
"O c #272013",
"+ c #2C2315",
"@ c #2F2817",
"# c #2F2618",
"$ c #2F2818",
"% c #302617",
"& c #322817",
"* c #312718",
"= c #342A1A",
"- c #392E1C",
"; c #3C321E",
": c #3F3320",
"> c #40351F",
", c #433621",
"< c #463924",
"1 c #4A3C25",
"2 c #4D3E28",
"3 c #503F27",
"4 c #503F28",
"5 c #4D4025",
"6 c #4F4029",
"7 c #504327",
"8 c #54442B",
"9 c #58472D",
"0 c #57482A",
"q c #5C4B2D",
"w c #5F502E",
"e c #5D4B31",
"r c #604F2E",
"t c #61502F",
"y c #604D32",
"u c #634F32",
"i c #624F33",
"p c #635230",
"a c #645330",
"s c #645430",
"d c #655431",
"f c #635034",
"g c #645134",
"h c #675436",
"j c #685333",
"k c #685234",
"l c #695537",
"z c #6D5737",
"x c #6F5837",
"c c #6B5739",
"v c #6C5739",
"b c #6B5839",
"n c #6F593A",
"m c #705937",
"M c #705B3A",
"N c #735C3A",
"B c #745D3A",
"V c #725B3C",
"C c #725D3C",
"Z c #755F3D",
"A c #765F3E",
"S c #76603D",
"D c #78613E",
"F c #79623F",
/* pixels */
"11122677<<<<<<<<<<<<<,,<<<,,,,,<,<>>,,,,662662222222222211111111,,,,,,,,222222222222222222222222222222222222266262626626,,,,,,,,",
"9999qqee55555555555555155115115551111111q9qq99999999999977777777<<<<<<<<99999999999999999999999999999999999999999999999911111111",
"gfgggggg00000000000000000000000000000000pgggfgpgpyyyyyyyqqqqqqee77777777yyyyyyyyyyyyyeyeyeeeeyeyyyyyyypyypypyyyypyyppppa00000000",
"nnnnnnnnqqqqqqqqqqqqqqqqqqqqqqqqqqqqqqqqnnnnnnnnvvvvcvvcaaaaajaaqqqqqqqqlcccvcvvcccccccllllllllcccccbvcvvvvvvnnvvvvvvnnnqqqqqqqq",
"ZZZZZZZZpppppppppppppppptpppppppppppppppZZZZZZZCCCCZCCCCxxxzzzzxttttttppCCCZCNCCCCCCCCCVCVCVCCCCCCCCCCCCCZCZCCCZZCCCZCCCpppttptt",
"DDDDDDDDddddddddddddddddddddddddddddddddSDSSDDSDSDDSSSSSMMMMMMMMddddddddSSDSSSDDSSDSSSSSSSSSSSSSSSSSSSSSSSSSSSSSDDSSDSSZaddadddd",
"DDDDDDDDddddddddddddddddddddddddddddddddDDDDDDDDDDDDDDDDNNBMNMBBddddddddDDDDDDDDDDDDDDDDDDDDDDDDDDDDDDDDDDDDDDDDDDDDDDDDdddddddd",
"DDDDDDDDddddddddddddddddddddddddddddddddDDDDDDDDDDDDDDDDBBBBBBBBddddddddDDDDDDDDDDDDDDDDDDDDDDDDDDDDDDDDDDDDDDDDDDDDDDDDdddddddd",
"DDDDDDDDDDDDDDDDBBBBBBBB11111111BBBBBBBBBBBBBBBBddddddddddddddddddddddddddddddddddddddddBBBBBBBBddddddddBBBBBBBBDDDDDDDDdddddddd",
"DDDDDDDDDDDDDDDDBBBBBBBB11111111BBBBBBBBBBBBBBBBddddddddddddddddddddddddddddddddddddddddBBBBBBBBddddddddBBBBBBBBDDDDDDDDdddddddd",
"DDDDDDDDDDDDDDDDBBBBBBBB11111111BBBBBBBBBBBBBBBBddddddddddddddddddddddddddddddddddddddddBBBBBBBBddddddddBBBBBBBBDDDDDDDDdddddddd",
"DDDDDDDDDDDDDDDDBBBBBBBB11111111BBBBBBBBBBBBBBBBddddddddddddddddddddddddddddddddddddddddBBBBBBBBddddddddBBBBBBBBDDDDDDDDdddddddd",
"DDDDDDDDDDDDDDDDBBBBBBBB11111111BBBBBBBBBBBBBBBBddddddddddddddddddddddddddddddddddddddddBBBBBBBBddddddddBBBBBBBBDDDDDDDDdddddddd",
"DDDDDDDDDDDDDDDDBBBBBBBB11111111BBBBBBBBBBBBBBBBddddddddddddddddddddddddddddddddddddddddBBBBBBBBddddddddBBBBBBBBDDDDDDDDdddddddd",
"DDDDDDDDDDDDDDDDBBBBBBBB11111111BBBBBBBBBBBBBBBBddddddddddddddddddddddddddddddddddddddddBBBBBBBBddddddddBBBBBBBBDDDDDDDDdddddddd",
"DDDDDDDDDDDDDDDDBBBBBBBB11111111BBBBBBBBBBBBBBBBddddddddddddddddddddddddddddddddddddddddBBBBBBBBddddddddBBBBBBBBDDDDDDDDdddddddd",
"DDDDDDDDDDDDDDDDddddddddddddddddddddddddddddddddBBBBBBBBBBBBBBBB11111111DDDDDDDDDDDDDDDDBBBBBBBBDDDDDDDDDDDDDDDDDDDDDDDDdddddddd",
"DDDDDDDDDDDDDDDDddddddddddddddddddddddddddddddddBBNNBNBNBNBNNBBB11111111DDDDDDDDDDDDDDDZMBBNBMNBDDDDDDDDDDDDDDDDDDDDDDDDdddadddd",
"ZZSSSDSDDDSDSSDSaadddddatdddaaaadaaadadddddddaddMMMMMMMMMMMMMMMM11111111SSDSSSSSSSSZZZZSMMMMMMMMSZZZSSSSZZZZZSZZZZZSSZZZpappappa",
"nnMMCCCCCCCCCCCCtttttttttttttttttttttttttttttttpzxzzzzxnxnxxnxxn<<<<<<<<NNCMCCCVMNMMMnMMzlllzzzzVMMMMMMCMMNCMMMMnnMMMMMMqqqqqqqq",
"ygglllcclcccllllqqqqqqqqqqqqqqqqqqqqqqqqqqqqqqqqaaaakakkgkkajagj,,,,,,,,llcccllllllllkkgyyyyyyyagllllhlllcllllhhghgggggg0000q000",
"99qeeyeyeeeyeeye77777777777777777777777777777777qqqqqqeqqqqqqqqq;;;;;;;;eeeeeeeeeeeeeeeq90909099eeeeeeeeeeeeeeeeeqeqqqeq55555555",
"<116779979887988<<<<<<<<<<<<<<<<<<<<<<<<<<<<<<<<7777777777777777===&&&&&777777777777777611111111777777777777777776766776<,,,<,,<",
"::,<111111111111;;;;;;;;;;;;;;;;;;;;;;;;;;>>;>;;1111111111111111########111111<1<1<<111<,,,,,,,,111<1<1<11<<1<11<<1<11<1;;;;;;;;",
"XXXXXXXXXXXoXXXXOXXXXXXXOOOOO++OOOOOOOOOOOOOO+##+#+++#####OOOOOOOOOOOO+OOOOOOOOOXXOoOXOXOOXXoOoXOXXXXXXXXoXXXXOXOOOOOOO++##+OOOO",
"XXXXOOOOOOOOOOOOOOOOOOOO##################+########+###+##O+OOOO+OOO####O#+#####OOOOOOOOOOOOOOOOOOOOOOOOOOOOOOOO################",
"OXOOOO+++#+++++#++#+#+#+*&*&%&&*#&&&&#*%@%$*&&*&*#######*############%*&%%%%&**&#############+################+#&&&&&&&&&&&&&&&&",
"+#+###%%%%%*%%%%%%&%%%%%======&======&==&=&==&&=&&&&&&&&&&&&&&&&&&&&====&==&&===****&&*&&&&&&&****************&*-==-===--=---=-=",
"%#%%%%*&*&*&&&****&&&&&&=====-=====================&=&&&&=========&=&======-====&&&&&&&&&&&&&&&&&&%%&*=&&=%&&*&=---------;;;;;;;",
"###%##*%**%%%*%%%%%%*%#%==================&&===&&&&&&&&&&&&&==&&&&&&&&====&==&&=%%%%%%%%%*%*%%*%%%%%%%%%%%%%%%%%-====-----------",
"+OOOO++###+#+####++###+#&&&&&&&&&&&&&&&&&&&&&&&&&#############*##*%#%#***#*&**#*+O+++++O+O+++++O+++O+++#+OO+++++&*&&&&&&&&&&&&=&",
"OXXOOOOOOOOOOOOOOOOOOOOO###############################+####++##################OOOOOOOOOOOOOOOOOOOOOOOOOOOOOOOO################",
"<,,,<<<<;;;;;;;;;;;;;;;;;;;;;;;;;;;;;;;;<<<<<<<<<<<<<<<<;;;;;;;;<<<<<1<<;;;;;;;;;;;;;;;;OOOO+OOO,,,,,,,,,,,,,,,,,,,,,,,,<<1<1111",
"1<111111;;;;;;;;;;;;;;;;;;;;;;;;;;;;;;;;1122121111221211,,,,>,,,22222221,,,,,,,>>>>>>>>>########11111111111111<<<<<<<<,,11111111",
"77777877<<<<<<<<<<<<<<<<<<<<<<<<<<<<<<<<7777887788999999<<<<<<<<99999999<<<<<<<<<<<<<<<<========77777777777777777642111172776777",
"eeeeeeee77777777775577777777757775757777eeeeeeeeeeyyyyyy77777777yyyyyyyy7777777777777777;;;;;;;;qqqqqqqqqqqqqqqqqqqq9999eeqeeqqq",
"llllllllqqqqqqqqqqqqqqqqqqqqqqqqqqqqqqqqlllllllcclllcllcqqqqqqqqlvllllllqqqqqqqqqqqqqqqq,,,,,,,,kgkgjagkgggaaaaaaaaayaaygggggggg",
"VVNCNCCNqttttttrtttqtttttwttttttttttttttNNMCNCMCNCNCCCNCttttttttCCCCCCCZttttttttpttptttt<<<<<<<<zxxxxxxxxxxxxxxxzzzzzlzlnVnnnnnn",
"ZZSZZSSZapaaaaaaaaaaapaaaaaaaaaaaaaaaaaaSZZSSSSSSSSSSSSSaaadddddSSSSSSSSdddaaddddaddaddd11111111MNMMMMNMMMMMMMMNMMMMMMMMZZZZZZZZ",
"DDDDDDDDddddddddddddddddddddddddddddddddDDDDDDDDDSDDDDDDddddddddDDDDDDDDdddddddddddddddd11111111BNNNBBBBBBNBBBBBBBNMNNNMDDDDDDDD",
"dddddddddddddddd11111111BBBBBBBBBBBNBBNBBBBBBNBNDDDDDDDDddddddddBBBBBBBBBBBBNBBBBBBBBBBBBBBBBBBBdddddddddddddddddddddddddddddddd",
"dddddddddddddddd11111111BBBBBBBBBBBBBBBBBBBBBBBBDDDDDDDDddddddddBBBBBBBBBBBBBBBBBBBBBBBBBBBBBBBBdddddddddddddddddddddddddddddddd",
"dddddddddddddddd11111111BBBBBBBBBBBBBBBBBBBBBBBBDDDDDDDDddddddddBBBBBBBBBBBBBBBBBBBBBBBBBBBBBBBBdddddddddddddddddddddddddddddddd",
"dddddddddddddddd11111111BBBBBBBBBBBBBBBBBBBBBBBBDDDDDDDDddddddddBBBBBBBBBBBBBBBBBBBBBBBBBBBBBBBBdddddddddddddddddddddddddddddddd",
"dddddddddddddddd11111111BBBBBBBBBBBBBBBBBBBBBBBBDDDDDDDDddddddddBBBBBBBBBBBBBBBBBBBBBBBBBBBBBBBBdddddddddddddddddddddddddddddddd",
"dddddddddddddddd11111111BBBBBBBBBBBBBBBBBBBBBBBBDDDDDDDDddddddddBBBBBBBBBBBBBBBBBBBBBBBBBBBBBBBBdddddddddddddddddddddddddddddddd",
"dddddddddddddddd11111111BBBBBBBBBBBBBBBBBBBBBBBBDDDDDDDDddddddddBBBBBBBBBBBBBBBBBBBBBBBBBBBBBBBBdddddddddddddddddddddddddddddddd",
"dddddddddddddddd11111111BBBBBBBBBBBBBBBBBBBBBBBBDDDDDDDDddddddddBBBBBBBBBBBBBBBBBBBBBBBBBBBBBBBBdddddddddddddddddddddddddddddddd",
"DDDDDDDDDDDDDDDDDDDDDDDDNNNNNBNNDDDDDDDDDDDDDDDDDDDDDDDDdddddddddddddddddddddddd11111111DDDDDDDDDDDDDDDDDDDDDDDDDDDDDDDDDDDDDDDD",
"SDSSSSDDDDDSDDDDSDDSSZSDMMMMNMMMSSSSSSSSSZZSSSSSSZZSSSSSpadaddadddaddddadaddddda11111111SDDDDDDDDDDDDDDDDDSDDDDDDSDDDSDDDDDDDDDD",
"NCCZCZZZZZZZZZZZCZZZCCZCnznnxzxzNCNNNNVNNNCNNVNNNNCCCNCNtttttttttttppttpptpttptt<<<<<<<<ZZZZZZZZZZZZZZZZZZZZZZZZZZZZZZZZZZZZZZZZ",
"lccnnnnnnnnnnnnnnnnnvnnnlkakkgajccllllllllllllllllllclllqqqqqqqqqqqqqqqqqqqqqqqq,,,,,,,,nnnnnnnnnnnnnnnnnnnnnnnnnnnnnnnnnnnnMMMV",
"yyypggggggggggggaggppppyqqqqqqqqyyeeeeeeeeeeeeeeeeeeyeee777777777777777777777707;;;;;;;;ppggpgggggggggggggggggpgpgpfgggggggggggg",
"99999qqqqqqqqqqq9999999988777777997988887978777878888877<<<<<<<<<<<<<<<<<<<<<<<<========99999999q999qq99qq99999999999999qqqqqqee",
"21126677777676666622222211111111111112121111111111112221;;;;;;;;;;>>;>;;;>>>,>>>########2222222222222222222222222222222222667777",
"<,<<1111111111111111<111,,,,,,,,<<<<<<<<<<<<11<<<<<<<<<<;;;;;;;;;;;;;;;;;;;;;;;;OOOOOO++<<<<<<<<<<<<1<<<<1<<<<<<<<<<<<<<<1<11111",
"OOOOO+#####+O##OOOOOOOOOOOOOOOOOOOOOOOOOOOOOOOOOOOOOOOOO####+#++#####+++++#++O##OOOOOOOOOXOOOOOOOOOOOOOOOOOOOOOO+O+#OOO+##OOO++O",
"################OO++O+O+O++++++##+######################&&&&&&&&&&**&**#***%%#%#+OO+OOOOOOOOOO+OOOOOOOOOOOOOO+OO###%%###########",
"&&&&&==&===&==&=%%*%%**&&&**%**&&&&&&&&&&&&&&&&&&&&&&&&&-------=-=-=-===========**%&**%%*%###%%%%##%%##%%####%%%=======&=&&&&&&&",
"-==-------------=========================--====-====-===;;;;;;;;;;;;;;--;;;;;-;;===========&====&&&===&&&&&&&===----------======",
"-;-;;;;;;;;;;;;;=--=-=====-====--==-=--====--==--=======;;;;;;;;;;;;;;;;;;;;;;;;=====================&=&&&&===&=------------=---",
"------;;;;;;;-;-=========&==&&==&&&&&&&&&&&=&&&=&&&&&&&&--=----=--=--------=---=&=&&&*&=&&*&&&&&&%&%%%%%%%%%%&%%================",
"&&&&&&======&===%%#%%%%#%##%###################+########&&&*#&&&*&&&**&&*&&&&&&&#++#+++++#+++##++#++++#++++#+O++****#*****&%*%%#",
"#+##############OOOOOOOOOOOOOOOOOOOOOOOOOOOOOOOOOOOOOOOO+###++++OOO###++O#######OOOOOOOOOOOOOOOOOOOOOOOOOOOOOOOO####+###########",
",,,,,<<<<<<<<<<<<<<<<<<<<<<<<<,<<<<<<<<<OOOOOOOO;;;;;;;;<<<<<<<<<<<<<<<<,,,,,,,,,,,,,,,,,,,,,,,,<<<<<<<<<<<<<<<<<<<<<<<<;;;;;;;;",
",,,,<<<<<<<<1<<<<<<<<<<<<<<1111111111111########;;;;;;;;11222211111222111<<<<<<<<<<<<<,<<<<<<<<<111111111111111211111111>>>>,>>>",
"1111222222222222622222222777777777777777&&&&&&&&<<<<<<<<7877880879888878777734765137775727777744999999999999999999999999<<<<<<<<",
"9999999999qq9qqeqqeq9qqqeeeeeeeeeeeeeeee;------;55777777eeeeeeeeeeyeyeeeqqqqqqqqqqqqqqqqqqqqqqqqyyyyyyyyyyyyyyyyyyyyyyyy77777777",
"gppggggggggggggggggggggggggllccllllllllc,,,::,,,qqqqqqqqcccllllccccclcccaaaaaaaaaaaaaagaaaaaaaaaccvcvcvvccvcccvccccvcvvvqqqqqqqq",
"nnnnnnnnnnnMnnnnMnnnMMnMMnMMMMVVMNNCCNNC<<<<<<<<ttttttttNCCNCNCCCCCCNCCCzzzzzzznzzzzzzvzzzzzzzzxCNCCNNCCCNCCNCCCCCZCCCCCtttttttp",
"ZZZZZZZZZZZZZZSSZZZZZZZZZZZSZZSSSZZSSSDS11111111aaadaddaSDSSSSSDSSZSSZSSMMMMMMNNMMMMMMMMMMMMNMMMSSSDDSDSDSSSSSZSSSSSSSSSdddddddd",
"DDDDDDSDDDDDDDDDDDDZDDDDDDDDDDDDDDDDDDDD11111111ddddddddDDDDDDDDDDDDDDDDBBNBNNBBNBMBNBBNBNBBBMMBDDDDDDDDDDDDDDDDDDDDDDDDdddddddd",
"ddddddddddddddddddddddddddddddddddddddddDDDDDDDDBBBBBBBBBBBBBBBBdddddddddddddddddddddddd11111111DDDDDDDDdddddddddddddddddddddddd",
"ddddddddddddddddddddddddddddddddddddddddDDDDDDDDBBBBBBBBBBBBBBBBdddddddddddddddddddddddd11111111DDDDDDDDdddddddddddddddddddddddd",
"ddddddddddddddddddddddddddddddddddddddddDDDDDDDDBBBBBBBBBBBBBBBBdddddddddddddddddddddddd11111111DDDDDDDDdddddddddddddddddddddddd",
"ddddddddddddddddddddddddddddddddddddddddDDDDDDDDBBBBBBBBBBBBBBBBdddddddddddddddddddddddd11111111DDDDDDDDdddddddddddddddddddddddd",
"ddddddddddddddddddddddddddddddddddddddddDDDDDDDDBBBBBBBBBBBBBBBBdddddddddddddddddddddddd11111111DDDDDDDDdddddddddddddddddddddddd",
"ddddddddddddddddddddddddddddddddddddddddDDDDDDDDBBBBBBBBBBBBBBBBdddddddddddddddddddddddd11111111DDDDDDDDdddddddddddddddddddddddd",
"ddddddddddddddddddddddddddddddddddddddddDDDDDDDDBBBBBBBBBBBBBBBBdddddddddddddddddddddddd11111111DDDDDDDDdddddddddddddddddddddddd",
"ddddddddddddddddddddddddddddddddddddddddDDDDDDDDBBBBBBBBBBBBBBBBdddddddddddddddddddddddd11111111DDDDDDDDdddddddddddddddddddddddd",
"DDDDDDDDBBBBBBBBBBBBBBBBBBBBBBBBDDDDDDDDDDDDDDDDddddddddddddddddddddddddddddddddBBBBBBBNBBBBBBBBBBBBBBBBBBBBBBBBBBBBBBBBdddddddd",
"DDDDDDDDBNNNNNNBBBMBBBNMBNBNBBBBDDDDDDDDDDDDDDDDddddadddddddddddddddddddddddddddNNNNMMMMMMMNNMMNMMMNMMMNNMMMNMNMMNBNMMNMdddddddd",
"ZZZZZZSZMMMMMMMMMMMMMMMMMMMMMMMMZZSZSSZZZZZZZZZZpappppaappaaaaaaaaaappapppppppppMMMnnMxMMMMMMnmMmnnMMnMMMMMMMMMnmMMMMMMMaapppppp",
"nnnnMNCMzzzzzzzzzzzzzzzzzzlzzzzzMNNMNMMCMNMNMMMnqrqrqqqqqqqqrrrqttrtqqqqrrqqqqqqlllllllllllllllllllllllllllllllllzlllllzrqqqqqqq",
"yypggklcayaayayaaayyayaayaaayayallkklllllllhlggg00000000q0000q0qqq0qq000q0000000yyyyyyyyyyeyyyyyyyyyyyyyyyyyyyyyyyyyyyyy00000000",
"7899qeee999999999999999999999999eeeeeeeeeeeeeeqq55551555155555555555555551111115000000080000000000000000000008000000099055555555",
"<<1227771111111111111111211111117777777777774767,,,,<,,,,<<<<<<<<<<<<<<<<,,,,,,,1111111111111111111111111111111111111111,<<,,<,,",
",:,,<<11,<,,,,,,,,,,,,,,,<,,,,,,1111111111111111;;;;;;;;;;;;;;;;;;;;;;;;;;;;;;;;,,,,,,,,,,,,,,,,,,,,,,,,,,,,,,,,,,,,,,,,;;;;;;;;",
"OoOOOOOOoOXXOXoXOOOOOOOO+OOOOOOOXoOOXXOoXXXXOXXOOOOOOOOXOOOOOOO+OOOOOOOOOOOO+OOOO++++OO++O+O+++OOOOOOOOOOOOOOOOOOOOOOOOOOOOO+OO+",
"OOO+####OOOOOOOO################OoOOOOOOOOOOOOOOOOOOOOOO########################################OOOOOOOOOOOOOOOOOOOOOOOO########",
"##**&&&&########&&&&*&*&&&*&&&&&O+##++++OO+++#++++++++++&&&#%*%&**%#&*&*&&&*&&&&&&&&&&&&&&&&&&&&########################&&&&&*&&",
"=&======%%%%%*%%======&==&==&==&%%%%%%%%#%#%%%%##%###%%%=&&&&&&=&&&&&&=&&=======================&*&&***********&*&**%%*%========",
"=====--=%&&=&&**================*%%%%%%*%%*%%%*#%#%#%#%#==&===&&&&&&===&&=&===================--**&&*****%***%**%%%%%%**========",
"&=======#%%%%%#%=&&&&&&&=&&&&&&&###################+++++*&&*&&&*&**&*&&&&&&*&&&&&&&&&&&&&&&&&&&&###%####################&&&&&&&&",
"#***#***O+OO+++O#%##############OOOOOOOOOOOOOOOOOOOOOOOO#######################################*OOOOOOOOOOOOOOOOOOOOOOOO########",
"++##+##+OOOOOOOO+#+####++OO#OOOOOOOOOOOOOOOOOOOOOOOOOOOO###+++#+++###+#####+##++#+##+#++#+##+O+#OOOOOOOOOOOOOOOOOOOOOOOOOOO+O+OO",
"<<<<<<<<<<<<<<<<<<<11111111<111111111111;;;;;;;;11111121;;;;;;;;;;;;;;;;########;;;;;;;;;;;;;;;;,,,<,,,,111<11111111111111111<<<",
"1111111111111122222222622626662222626666,,,,,,<<77777777<<<<,<,<<<<<<<<<&&&&*&&&<,,<<,<,,,,,,,,,11111111622662662666666666222622",
"999999999999999999999999qqqqqqqqqqqqqqq911115555eeeeeeee1555555555115515=-=---==555555111111<<1100000000qqqqqqqqqqqqqqqqqq9qqq99",
"yyyyyyyyyyyyyyypypppfggggggggggggggggggg00000000ghhhgggg0000000000000000;;;;;;;;0000000000000000yyyyyyyrggggggggggggggggggfggggg",
"nnvvnvlnvvvnvvnvvvnnnnnnnnnnnnnnnnnnnnnMqqqqqqqqnMnMMMMMqqqqqqqrqqqqqqrq,,,,,<,,qqqqqqqqqqqqqqqqllllllllnnnMMMnnnnnnnnnMnnnnnnnn",
"CCZZZZZZZZZCCZZZZZZZZZZZZZZZZSZZZZZZZZSZpappppppZZZZZZZZappppppapapappap<<<<<<<<papappappappppppnMMnnMxMZZZZZZZZZZZZZZZZZZZZZZZZ",
"SSDDSSDSSDSDDSDDDSDSDDDDSDZDDDDDDDDDDDDDddddddddDDDDDDDDdddddddddddddddd11111111ddddddddddddddddMMMMMMMMDDDDDDDDDDSDDDDDDDDDDDDD",
"DDDDDDDDDDDDDDDDDDDDDDDDDDDDDDDDDDDDDDDDddddddddDDDDDDDDdddddddddddddddd11111111ddddddddddddddddBBBBBBBBDDDDDDDDDDDDDDDDDDDDDDDD",
"BBBBBBBBdddddddd11111111DDDDDDDDDDDDDDDDDDDDDDDDDDDDDDDDddddddddDDDDDDDDBBBBBBBBBBBBBBBBddddddddddddddddddddddddddddddddBBBBBBBB",
"BBBBBBBBdddddddd11111111DDDDDDDDDDDDDDDDDDDDDDDDDDDDDDDDddddddddDDDDDDDDBBBBBBBBBBBBBBBBddddddddddddddddddddddddddddddddBBBBBBBB",
"BBBBBBBBdddddddd11111111DDDDDDDDDDDDDDDDDDDDDDDDDDDDDDDDddddddddDDDDDDDDBBBBBBBBBBBBBBBBddddddddddddddddddddddddddddddddBBBBBBBB",
"BBBBBBBBdddddddd11111111DDDDDDDDDDDDDDDDDDDDDDDDDDDDDDDDddddddddDDDDDDDDBBBBBBBBBBBBBBBBddddddddddddddddddddddddddddddddBBBBBBBB",
"BBBBBBBBdddddddd11111111DDDDDDDDDDDDDDDDDDDDDDDDDDDDDDDDddddddddDDDDDDDDBBBBBBBBBBBBBBBBddddddddddddddddddddddddddddddddBBBBBBBB",
"BBBBBBBBdddddddd11111111DDDDDDDDDDDDDDDDDDDDDDDDDDDDDDDDddddddddDDDDDDDDBBBBBBBBBBBBBBBBddddddddddddddddddddddddddddddddBBBBBBBB",
"BBBBBBBBdddddddd11111111DDDDDDDDDDDDDDDDDDDDDDDDDDDDDDDDddddddddDDDDDDDDBBBBBBBBBBBBBBBBddddddddddddddddddddddddddddddddBBBBBBBB",
"BBBBBBBBdddddddd11111111DDDDDDDDDDDDDDDDDDDDDDDDDDDDDDDDddddddddDDDDDDDDBBBBBBBBBBBBBBBBddddddddddddddddddddddddddddddddBBBBBBBB",
"DDDDDDDDDDDDDDDDddddddddddddddddddddddddDDDDDDDDDDDDDDDDddddddddDDDDDDDDDDDDDDDDddddddddBNNBBBBBDDDDDDDDDDDDDDDDDDDDDDDDDDDDDDDD",
"DDDDDDDDDDDDDDDDddddddddddddddddddddddddDDDDDDDDDDDDDDDDddddddddDDDDDDDDDDDSDDDDddddddddMMMMMMMMDDDSDDDDDDDSDDDDDDDDDDDDDDDDDDDD",
"ZZZZZSSZSZSSZSZZapppapaadpppapaappppppppZZZZZZZZZZZZZZZZptppppptZZZZZZZZZZZZZZZCpppptpppxxxmxxxxZCZCZZZZZZZZZZZZZZZZZZZZZZZZZZZZ",
"nnnMMMMMMNMMMnMnqqqqqqqrqqqqqqqrqqqqqqqqnnnnnnnnnnnnnnnnqqqqqqqqnnnnnnnnnnnnnvnnqqqqqqqqljjlljllnnvnnvnnnnnnnnnnnnnnnnnnnnnnnnnn",
"gggglhllhlgglhgg000000000000000000000000ggfpgpapppgpgfgg00000000gfgpgggffffyyyyy77777777qqqqqqqqyypyypppgfggpfgfgpfffpgfggggaggg",
"9999qqeeeeqeqqqq5155111111115111111<<<<<9999999999999999<<<<<<<<9999999999999999<<<<<<<<7777777799999999999999999999999999999999",
"2112277767666672,,,,,,,,,,,,,,,,,,,,,,,,2212111221221222,,,,>,,,2221111211121111>>>>>>>>11<1111111122111121112112211111211122222",
",,,,<<<11<<<<<<<;;;;;;;;;;;;;;;;;;;;;;;;<<<<<1<<<<<<<<<<;;;;;;;;<<<<<<<<<<<<<<<<;;;;;;;;,,,,,,,,<<<<<<<<<<<<<<1<<<<<<<<<<<<<<<<<",
"OOOOOOOOOOOOOOOOOOOOOOOO#######+XOOOOOOOOOOOOOOO######*#OOOOOOOO#+#+O#++++##+########+++OOOOOOOO        OOOOOOOOOOOOOOOOO++++OOO",
"+OOO####################********OOOOOOOO+++++OOO&&&&&&&&OOOOOOOO####%%#%#%%%*%%*&&&&%%*%++++++++XXXXXX..OOOOOOO++OO+O+OO%%%#####",
"&&&&&&&&&&&&&=&=========--------%%%*%********%*%--------*****&**===========-=-==-=--=-=-&&&&&&&&XXXXXXXX&&*%*&**&&&&*&*&-=======",
"-----;;;;;;;;;;;;;;;;;;;,:,,,,,,=======-------=-,,,,,,,,-=--==-=;;;;;;;;;;;;;;;;;;;;;;;;---=----OOOOOOOO==-=-==-=--====-;;;;;;;;",
",;;;;;>;,>;,>>>,,>,;>>>>,,,,,,,,--;-;-;;;;;;;;;;,,<<<,,<-;;;-;;;,,,,,,,,,,,,,,,,,,,,,,,,;;;;;;;;OOO++O+O;;------------;;,,,,,,,,",
",,,:,,,,:,,,,,,,,,,,,,>>,,,,,,,,-----;--;-;-;;-;,,,,,,,,--;;;---,,,,,,,,,,,,,,,,,,,,,,,,--;-;;;;OOOO++++;--;-----------;,,,,,,,,",
";;;;;;;;;;;;;;;;;;;;;;;;,,,,,,,,=-=-=========-==,,,,,,,,--======;;;;;;;;;;;;;;;;;;;;;;;;========OOOOOOOO=-=============-;;;;;;;;",
"-=======================--------%&*&*****%%%*%**--------%%**%***========================**%*%*%%XXXXXXXX***%######%%%%%*========"
};
