/* XPM */
static char *_f8dcb21a4484ef0c961f5f3822da6cayFROdigqFFVWddpb[] = {
/* columns rows colors chars-per-pixel */
"128 128 21 1 ",
"  c #382B23",
". c #3A2B24",
"X c #3A2B26",
"o c #3C2B24",
"O c #3C2B26",
"+ c #382C25",
"@ c #3B2C24",
"# c #3B2D27",
"$ c #3C2D27",
"% c #3B2D28",
"& c #3E2F2A",
"* c #3E3027",
"= c #3F3129",
"- c #3F332B",
"; c #3F312C",
": c #402F28",
"> c #402E29",
", c #41322A",
"< c #42342B",
"1 c #41332C",
"2 c #42342C",
/* pixels */
"&&&&&&&&##$$$$$$$$$$$$$$$$$$$$$$&%#XXXX#=======&,,======,,,,,,,=#######$,,,,,,,========&#$$$$$$$########################=&&&&&&&",
"&&&&&&&##$$$$$$$$$$$$$$$$$$$$$$$&&&&###&=&&&&&&&,,,====,,,,,,,==######$$,<,,,,=========&#$$$$$$$#######################$&$&&&&&&",
"&&&&&&&&#$$$$$$$$$$$$$$$$$$$$$$$&&&&&&#&=&&&&&&&,,,======,,,,===#####$$$,,,,,==========&#$$$$$$$#######################$&$&&&&&$",
"&&&&&&&&#$$$$$$$$$$$$$$$$$$$$$$$&&&&&&&&=&&&&&&&11,=============###$$$$$,,,============&#$$$$$$$#########XX###XX#######$&&&&&&&$",
"&&&&&&&&#$$$$$$$$$$$$$$$$$$$$$$$&&&&&&&&=&&&&&&&,,,=============###$$$&&,,,============&#$$$$$$$#######################$&$&&&&$$",
"&&&&&&&##$$$$$$$$$$$$$$$$$$$$$$$&&&&&&&&=&&&&&&&,,==============##$$$&&&,,,============&#$$$$$$########################$$&&&&&$$",
"&&&&&&&&#$$$$$$$$$$$$$$$$$$$$$$$&&#####&=&&&&&&&,===============#$$$&&&&,,,============&#$$$$$########################$$$$$&&&&$",
"&&&&&&&#$&&&&&&&&&&&&&&&&&&&&&&&&&&&&&&&&&&&&&&$================$$$$$$&&,,,========&&&&$$&&&&&&&$$$$$$$$$$$$$$$$$$$$$$$&$$$$$$$$",
"&&&&&&&&&&$$$$$$1111111111111111,,,,11111111;;;=#######################$,,======,,,,,,,,,,,,====XXXXXX##=&&&&&&&&&&&&$&&X######$",
"&&&&&&&&&&$&$$&$1111111111111111,1,,11111111;;==#$$$$$$$$$$$$$$$$$$$$$$&,,======,,,,,,,,,,,,====XXXXX###&&&&$$$$&&$$$$&$#$$$$$$&",
"&&&&&&&&&&&&&&&$11,,,,,,,,,,,,,,,,,,,,,,;;;;;=&&#$$$$$$$$$$$$$$$$$$$$$$&,,=======,,,,,,,========XXX####%&&&&&&$$&&&&$$&$#$$$$$$&",
"&&&&&&&&&&&$&&&$11,=====,,,,,,,,>>>&,,,,&&&&==&&#$$$$$$$$$$$$$$$$$$$$$$&,,======================XX####&$&&&&&&$$&&&&$$&$#$$$$$$&",
"&&&&&&&&&&&&&&&$,,,=====,,,,,,,,>>,,,,>,&&====&&#$$$$$$$$$$$$$$$$$$$$$$&========================XX####$$&&&$&&&&&$$&$&&$#$$$$$$&",
"&&&&&&&&&&&&&&$$,,======,,,,,,,,,>,,,,>>&&===&&&#$$$$$$$$$$$$$$$$$$$$$$&========================X####$$&&&&$&&&&$$$&&&&$#$$$$$$&",
"&&&&&&&&&&&&$$$$,===============&&&&&&&&&&&&&&&&#$$$$$$$$$$$$$$$$$$$$$$&==&&$$$$================###&$$&&&&$$$$&&$$&$&&&$#$$$$$$&",
"&&&&&&&$$$$$$$$$================&&&&&&&&&&&&&&&&#$$$$$$$$$$$$$$$&&&&&&&&==&&$$$$================##%&$&&&&$$$$$$$$$&&&&&$$&&&&&&&",
"&&&&&&&########################$XXXXXX#$X#######$$$$$$$$$$$$$$$&,,,,,,,=$$$$$$&&================&&&&&&&&<,,,======&&&$$$***===**",
"&&&&&&&###########$$$$$$$$$$$$$&XXXXX#$$########$$$$$$$$$$$$$$$&,,,,,,==$&&&&&&&=&&&&&&&&&&&&&&&&&&&&&&&<<=======&&&$$$$$$****$$",
"&&&&&&&########%#$$$$$$$$$$$$$$&XXX##$$$########$$$$$$$$$$$$$$$&,,,,,=&&$&&&&&$&=&&&&&&&&&&&&&&&&&&&&&&&<<=======&&&&&$$$$$$*$$$",
"&&&&&&&%######%%#$$$$$$$$$$$$$$&XX#$$$$$########$$$$$$$$$$$$$$$&,,,===&&$&&&&&&==&&&&&&&&&&&&&&&&&&&&&&&<,=======&&&&&$$$$$$$$$$",
"&&&&&&&%######%%#$$$$$$$$$$$$$$$XX#$$$$$########$$$$$$$$$$$$$$$&,,,===&&$&&&&$$==&&&&&&&&&&&&&&&&&&&&&&#==========$&====***$$$$$",
"&&&&&&&%#####%%%#$$$$$$$$$$$$$$$X#$$$$$$########$$$$$$$$$$$$$$$&,,===&&&$&&&&&$==&&&&&&&&&&&&&&&&&&&&&&#=========&&&==&&**$$$$$$",
"&&&&&&&%###%%%%%#$$$$$$$$$$$$$$$#$$$$$$$########$$$$$$$$$$$$$$$&,=&$$$&&&$$&&&&==&&&&&&&&&&&&&==&&&&&&&#=========&&&$$&&***$$$**",
"&&&&&&&%##%%%%%%$&&&&&&&&&&&&&$&$$$$$$$$#$$$$$$$$$$$$$$$&&&&&&&&==&$$$&&$&&=====&&&&$$$&&&&&&&&&%%%%%%%#========&$$$$$$$***$$$**",
"&&&&&&&$,,,,,,,=========&&&&&>>&$$&&&$$$XXXXXXXX&&&&&$$$,,,,,,>&=&&&&&&&&&&&&&&&################$$$$$$$$$$$$$$$$$$$$$$$$$$$$$$$$",
"&&&&&&&$,,,,,,===&&&&&&&&&&&&&&&$$$$$$$#XXXXXXX#&&&&$$$$,,,,,,&&&&&&&&&&&&&&&&&&#&&&&$##&=&###&&&&&&&&&&&&$$$$&&$$$$$$$&$$$$$$$$",
"&&&&&&&&,,,,,====&&&&&&&$$&&&&&&$$$$$$$#XXXXXX##&$&&&&&$,,,,>&&&&&&&&&&&&&&&&&&&#&&&&&#&==&&%%&&&&&&&&$$&&&&$$$&$$$$$$$&$$$$$$$$",
"&&&&&&&&,,,======&&&&&&&&&&&&&&$$$$$$$$#XXXXX#$$&$&&&&&$,,,&&&&&&&&&&&&&&&&&&&&&#&&$&&&&&&&&%%&&&&&&&$$$&&&&$$$&$$$$$$$&=$$$$$$$",
"&&&&&&&&,,,======&&&&&&&$$&&&&$$$$$$$$$#XXXXX#$$&$$&&&&$,,,&&&&&&&&&&&&&&&&&&&&&#&&&&&&&%%%&&&&&$$&&&&$$&&$$$$&&$$$$$$$&=$$$$$$$",
"&&&&&&&$,,,======&&&&&&&$$&&&&$$$$$$$$$#XXX##$$$$$$$&&&#,,&&&&&&&&&&&&&&&&&&&&&%#&&&&&#&%#%%&&&&&$&$&&$$&&$$&$&&$$$$$$$&$$$$$$$$",
"&&&&&&&$,,,======&&&&&&&$$$&&&&$$$$$$$$#XX#$$$$$&&&&&&&#,&&$&&&&&&&&&&&&&&&&&&&%%&##########&&&&$$$$&&&&&$$$&&&&$$$$$$$&$$$$$$$$",
"&&&&&&&$,,,=====&&&&$$$&OOOO$$$O########X##$$$$$&$$$O###&&&$$&&&&&&$$$&&%##%####&&&&&&&&========&&&&&&&&&&&&&&&&&&&&&&&&$$$$$$$$",
"=&&&&&&&,,,,,,,,,,,,,,,=$$$$$$$$$$$$$$$$XXXXXXXX###############################$1111111111111111,,>>,,,,========,,,,====#######$",
"=&&&&&&$,,,,,,,,,,,,,,==$&&&$$$$&&&&$$$$################$$$$$$$$$$$$$$$$$$$$$$$&1211111111111111,,>>,,,,===;====,,,,====######$$",
"=&&&&&&$,,,,,,,,=,,,,===$$&&&&$$&&&&&&$$################$$$$$$$$$$$$$$$$$$$$$$$&11,,,,,,,,,,,,,,==&&==================&&#####$$$",
"=&&&&&&$,,,,,,,,========$$==&&$$&&&&&&&&###X############$$$$$$$$$$$$$$$$$$$$$$$&11,,,,,,,,,,,,,,&&&&&&&&&&&&&&&&======$$###$$$$$",
"=&&&&&&$,,,,,,,,========$&&&&&&&&&&$&&&&###X############$$$$$$$$$$$$$$$$$$$$$$$&,,,,,,,,,,,,,,,,&&&&&&&&&&&&&&&&======&$###$$$&$",
"=&&&&&&&,,,,,,,,========$&&&&&&&&&&$=&&&################$$$$$$$$$$$$$$$$$$$$$$$&,,,,,,,,,,,,,,,,&&&&&&&&&&&&&&&&=====&$$##$$$&&$",
"=&&&&&&&,,,=**======****&&&&&&&&&&$$$$&$################$$$$$$$$$$$$$$$$$$$$$$$&,,,=============&&&&&$&&&&&&$$&&&&&&&&&&#$$$&&&&",
"&&&&&&&$,,==***=====****$&&==========&&$################$$$$$$$$&&&&&&&&&&&&&&&&,,==============&&&&&&&&%&&&$$$&&&&&&&&&$$$$&&&&",
"$$$$$$$$$$$$$$&&========&&&&&&&&&&&&&&&&&$&&&&$$&&$$&&&&$$&&&$$&=&&&&&&&#####$$$===============&$$$$$$$$$$$$$$&&#######&,,,,,,,=",
"$*======$$$$$$&&=&&&&&&&&&&&&&&&&&$$&&&$$$$$&&&$&&&$&&&&$$&&&&$&&&&&&&&&####$$$$=&&&&&&&&&&&&&&$$&&$&&=&$$$$$$&&######&&,====&==",
"$===,===&&&&&&=&=&&&&&&&&&&&&&&&&&$$$&&$$&$$&&&&&&$$$$&&$&&&$$$&&&&&&&&&#X$$$&$$=&&&&&&&&&&&&&&&$$$$&&&&&&&&&&=&#####&&&,=======",
"$*=*====&&&&&&&==&&&&&&&&&&&&&&&&&$$$&&$$&$$&&&&&&$$$$&&&&&&$$$&&&&&&&&&##$&&&&&=&&&&&&&&&&&&&&&$&$$&&&&&&&&&&&=###$&&&&,======&",
"$=======&&&&&&&==&&&&&&&&&&&&&&&&&$$$$&$$&&&&$$&&&&&$$$&&&$$&&&&&&&&&&&$#$$&&&&&=&&&&&&&&&&&&&&&$&&&&&&$&&&&&&&=####&#&&,======&",
"$=======$$&&&&&==&&&&&&&&&&&&&&&&&$$$$&#$&&$&&$&&&$$$$$&&$$$&&&&&&&&&&&$$$&&&&&&=&&&&&&&&&&&&&&$$&&&$&$$$$&&&&&=####&&&&,======&",
"&===**==$$$&&&&==&&&&&&&&&&&&&&&&&&$$&&#$&&&&$$$$$$$&&&&&&$$&&&&&&&&&&&$$&&&&&&&=&&&&&&&&&&&&&&&&&&&$$$$$$&&&$&=#&%&&&&&,======&",
"==,,,,,,=========&&&&&&&###&&&##&&&$&&&#$&&&$$$$&&&&&&&&&&&&&&&&&&&&&&&&&&&&&&&&=&&&&&&&&&&&&&&$&&&=============&&#&&&&&===&&&&$",
",,,,,,,,,,,,=====&&&&&&&&&&&&&&&$$&&$$$##$$$$$$&,,,,,,,,,,,,,,,>&$$$$$&&&$$&&&$&&&&&&&&&&&&&&&&&,,,,,,,,,,,,,,,,,,,,====XXXXXX#$",
",,,,,,,,,,,,=====&&&&&&&&&&&&&&&$&&&&$$##$$$$$$&,,,,,,,,,,>>,,>>&$$$&&&&$$$$&&$$&&&&&&&&&&&&&&&&,,,,,,,,,,,,,,,,,,,,====XXXXX#$$",
",,,,,,,,=========&&&&&&&&&&&&&&&$$&&&&&##$$$$$$&,,======>>>>>>>&&$&&&&&&&&$$&$$$&&&&&&&&&&&&&&&&,,,,,,,,,,,,,,,,======&&XXX##$$$",
",,,==============&&&&&&&&&&&&&&&$$&&&&&##$$$$$$&,,=&&&&&>>>>>>&&&&&&&&&&&&$$&&$&&&&&&&&&&&&&&&&&,,,===================&&XX#$$$$&",
",,,==============&&&&&&&&&&&&&&&$$&&&&&##$$$$$$&===&&&&&>>>>>>&&&&&&&&&&&&$$$&&&&&&&&&&&&&&&&&&&,,,===================&&XX#$$$&&",
",,===============&&&&&&&&&&&&&&&$$&&&&&##$$$$$$&&=&&&&&&>>>>>&&&&&&&&&&&&&$$&&&&&&&&&&&&&&&&&&&&,,===================&&&X#$$$&&&",
",=&&&&&&=========&&&&&&&&&&&&&&&&&&&&&&##$$$$$$$&&&&&&&&$$$$&&&&$$$$$$&&&&&$&&&&&&&&&&&&&&&&&&&&,===============&&$$&&&&#$$&&&&&",
"==&&&&&&=========&&&&&&&&&&&&&&&&$$$$####$$$$$$$&&&&&&&&>&&&&&&&$$$$O$$$##XX####%###%%%%$$$$$$&$================$$$$$&&&$$&&&&$&",
"========&&&&&&$$&$$$$$&#X#######$$$$$$$&&&$&$&$$$#######$$$$$$$$$$$$$$&=#####$$$########$$$$$$$$$$$$$$$$$$$$$$$$================",
"&&&&&&&&&&$$$$$$&&$$$$&##$$$$$$$$&&&&&$$$$$&&&$&$$$$$$$$================####$$$$#&&&&###$&$$$$&&&&&&$&&&&&&&$$$&=&&&&&&&&&&&&&&&",
"&&&&&&&&&&&&&&$&&&&&$&&##$$$$$$$$&&&&&$$$$&&&&&&$$$$$$$$================#X$$$&&&#&&&&&##&&&&$&&&&&&&$$&&&&&&&&$&=&&&&&&&&&&&&&&&",
"&&&&&&&&&&&&&&&&&&&&$&&##$$$$$$$$$&&&&$$$&&&&&&$$$$$$$$$================##$&&&&&#&&&&&&#&&&&&&&&&&$$$$&&&&&&&&&==&&&&&&&&&&&&&&&",
"&&&&&&&&&&&&&&&&$$&&&&&##$$$$$$$&&&$&&&&====$&&&$$$$$$$$============**$=#$$&&&&&#&##&&&&$$&&&$&&&$&&$&&&&&&&&&&==&&&&&&&&&&&&&&&",
"&&&&&&&&&&&&&&&&$$&&&&&##$$$$$$$&$&$&&==&&&=$&&&$$$$$$$$============**$=$$&&&&&&####&&&&&$&&&&&$&$$&$$&&&&&&&&&==&&&&&&&&&&&&&&&",
"&&&&&&&&&&$$$$$$$$&&&&&##$$$$$$$&&$$$$&&&&$$$&&&$$$$$$$$================$&&&&&&&%&####&&$$$$&&&&$$$&$$$$&&$&$$&==&&&&&&&&&&&&&&&",
"&&&&&&&&$$$$$$$$########$&&&&&&&=====&&&$$$$$$&&&&&&&&&&================&&&&&&&&&&&&&&&&&&&&&&&&&&&&&&&&========&$$$$$&&&&&&&&&&",
"=&&&&&&&,,,,,,,,,,,,====XXXXXXXX=======&$$$$$$$$=&&&&&&&&&&&&&&&&&&&&&&&,,,,,,,,,,,,,,,,,,,,,,,,,,,,,,,,1111111111111111,,,,==&&",
"=&&&&&&$,,,,,,,,,,,,====XXXXXXX#======&&#$$$$$$$&&&&$$$$&&&&$$&&&&&&&&&$,,,,,,,,,,,,,,,,,,,,,,,,,,,,,,,,1111111111111111,,,,==&&",
"=&&&&&&&,,,,,,,,========XXXXXX##=====&&&#$$$$$$$&&&&&&$$&&$$$$&&&&&&&&&&,,======,,,,,,,,,,,,,,,,,,,,,,,,,,,,,,,,11111111=====&&&",
"=&&&&&&&,,,=============XXXXX#$$===&&&&$#$$$$$$$&&&&&&$$&&&$$$&&&&&&&&&&,,======================================,,,,,,,,&&&&&&&&",
"=&&&&&&$,,,=============XXXXX#$$===&&$$$#$$$$$$$&&&$&&&&$$$$&&$$&&&&&&&&========================================11,,,,,,&&&&&&&&",
"=&&&&&&&,,==============XXX##$$$==&&&$$$#$$$$$$$&&&$&&&&$$$$&$$$&&&&&&&%========================================,,,,,,,,&&&&&&&&",
"=&&&&&&$,=====**========XX#$$$$$=&&&$$$$#$$$$$$$&&$$$$&&&&&&&&$$&&&&&&&#==&&&&$$================================,,,,,,,=&&$$&&&&",
"=&&&&&&$================X##$$$$$&&&$$$$$#$$$$$$$&$$$$$$$&&&&&&$$##&&%%%#==&&&&$&================================,,,,,,==&&$$&&&&",
"=&&&&&&$$$$$$$$$########################$$$$$$$$$######$&&&&&&&$X####$$&=&&&&&&&&&&&&$$$########$$$$$$$$$$$$$$$$,,,,,,==,,,,;===",
"&&&&&&&$$&&&&&&&$$$$$$$$$$$$$$$$$$$$$$$$$$$$$$$$$$$$$$$&&&&&&&&$X###$$&&&&&&&&&&$&&&$$$$#$$$$$$$$&$$$$=&$&&&$$$&,,,,,,==,=======",
"&&&&&&&&$&&&&&$$$$$$$$$$$$$$$$$$$$$$$$$$$$$$$$$$$$$$$$$&$$&&&&&$##$$$&$$&$&&&&&$$$&&&&&$#$$$$$$$&&&&$&&&$$&&&&&&,,,,,,==,=======",
"&&&&&&&&$&&&&&&$$$$$$$$$$$$$$$$$$$$$$$$$$$$$$$$$$$$$$$$&$$$$&&&O##$&$$&&&$&&&&&$$$&&&&&$#$$$$$$$&&&&&&=&$$&&&&&=11,,,,==,===&&&=",
"&&&&&&&&$&&&&&$$$$$$$$$$$$$$$$$$$$$$$$$$$$$$$$$$$$$$$$$&$$&&&&$X##$&&&&&&$&&&&$$$$&&&&&$#$$$$$$$$&&&&&&$$&&&&&&=,,,,,,==========",
"&&&&&&&$$$&&&&$$$$$$$$$$$$$$$$$$$$$$$$$$$$$$$$$$$$$$$$$&$$&&&&$X##$&&$&&$$&&&&$$$$&&&&&##$$$$$$$$$&&&&&$$&&&&&&=,,,,,===========",
"&&&&&&&$$$$&&&$$$$$$$$$$$$$$$$$$$$$$$$$$$$$$$$$$$$$$$$$&$&&&&$$X##$&&$&&$$$&&&&$&&&&&&&##$$$$$$$$$&&&&$$&=&=$&$=,,,=============",
"&&&&&&&$$&&&&&&&&&&&$$$$$$$$$$$$$$$$$$$$&&&&&&&&&&&&&&&&&$$$O##X##$&&&&&$$$$$###########$&&&&&&&================,,==============",
"&&&&$$$$&&&&&&&&=======&##$$$$$$$$$$$$$&111111111111,,,,X######$##$$&&&=$$$$$$$$,,,,,,,,11111111,,,,==&&=====,,=&&>>&&$$&&&&$$$$",
"&&&&$$$$&&&&&&&$======&&##$$$$$$$$$$$$$&121111111111,,,,#$$$$$$$###$&&&=$&&&$$$&,<,,,,,,11111111,,,,==&&=&&&=&&&&&&&$$$$&&&&$$$&",
"&$&&$$&$&&&&&&&$=====&&&#$$$$$$$$$$$$$$&11,,,,,,,,,,,,,=#$$$$$$$##$&&&&=$$&&&&&&,,,,,,,,,,,,,,,,=====&&&=&&&&&&$&$&&$$&&&&&&$$&&",
"$$&&&&&&&&&&&&&$===&&&&&#$$$$$$$$$$$$$$&11,,,,,,,,,,,,==#$$$$$$$##$&&&&=$$&&&&&=,,,,,,,,========&&&&&&&&=&&&&&&$$$&&&&$&$$&&&$$&",
"$$$$&&&&&&&&&&&$;==&&&&&#$$$$$$$$$$$$$$&,,,,,,,,,,,,,,==#$$$$$$$#$$&&$&=$&&&&&&=,,,,,,,,========&&&&&&&$=&&&&&$$$&&&&&&&$$$$&&&&",
"$$$$&&&&&&&&&&&$==&&&&&&#$$$$$$$$$$$$$$&,,,,,,,,,,,,,===#$$$$$$$$$&&&&==$$&&&&&=,,,,,,,,========&&&&&&$$=&&&&&$$$$$&&&&&$$$$$&&&",
"&&&&&&$$&&&&&&&&=&&&&%%%#$$$$$$$$$$$$$$&,,,=============#$$$$$#$$&$&&===&&&&&&&=,,,=============$$&&&&$&*$$&&&&$&&&&&&&&&&$&&&&&",
"$$$$$$$$&&&&&&&&&&&&&%%%$$$$$$$$$$$$$$$&,,==============$$$$$$$$&&&&&===&&&=====,,==============&&&&&&&&$$$$$$$$$$$$$$$$##XXXXX#",
"XXXXXX#$$$$$$$&&&&&&&&&&&&&&&&&$$$$$$$$&=&&&&&&&========&&&&&&&&,,,,,,,,,,,,,,,,=======================&,,,,,,,,,,,,,,,=########",
"XXXXX#$$$$$$&$&&&&&&&&&&$$&&&&$$#$$$$$$&&&&&&&&&&&&&&&&&&&&&&&&&,,,,,,,,,,,,,,,,=&&&&&&&&&&&&&&&&&&&&&&&,,,,,,,,,,,,,,==##X#####",
"$####$$&&&&&&&&&&&&&&&&&$&$&&$$$#$$$$$$&&&&&&&&&&&&&&&&&&&&&&&&&,,,,,,,,,,,,,,,==&&&&&&&&&&&&&&&&&&&&&&&,,,,,,,,,,,,,===##$$$$$$",
"$$$$$$&&&&&&&&&&&&&&&&&&$&&&&$$$#$$$$$$&&&&&&&&&&&&&&&&&&&&&&&&&,,,=====,,,,,,===&&&&&&&&&&&&&&&&&&&&&&&,,,=============##$&&&&&",
"$$$$$$&&&&&&&&&&&&&&&&&&&&&&&&&$#$$$$$$$&&&&&&&&&&&&&&&&&&&&&&&&,,,=====,,,,,,===&&&&&&&&&&&&&&&&&&&&&&&,,,=============#$$&&&&&",
"$$$$$&&&&$&&&&&&&&&&&&&&&&&&&&&##$$$$$$&&&&&&&&&&&&&&&&&&&&&&&&%,,,=====,,,,,,===&&&&&&&&&&&&&&&&&&&&&&&,,==============$$&&&&&&",
"$&$$&&&$$$$$&$&&&&&&&&&&&&$&$$&##$$$$$$&&&&&&&&&&&&&&&&&&&&&&&&%,,,=====,,,,,,===&&&&&&&&&&&&&&&&&&&&&&&,===============$$$&&&&&",
"&&$&&&&&$$$$$$$$&$$$$$$&#########$$$$$$$&&&&&$$$$$&&&&&&%%%%%%%#,,,=====,,,,,,==&&&&&$$$$$&&&&&&&$$&&&&$================$$$&&&&&",
"&&&&&&&&X###############$###$$$$$$$$$$$$$$$$$$$$###############$111,,,,,,,>>>>>>########################$$$$$$$$$$$$$$&&========",
"&&&&&&&$#$$$$$$$##&&&&#&$$$$$$$$$$$$$$$$$$$$$$$$$$$$$$$$$$$$$$$&111,,,,,,,,,>>>>#$$$$$$$########$$$$$$$$$$$$****&&$$$$&&=&&&&&&&",
"$$&&&&&$#$$$$$$$###$&&&&$$$$$$$$$$$$$$$$$$$$$$$$$$$$$$$$$$$$$$$&111,,,,,,,,,,,>>#$$$$$$$########$$$$$$$$$$$$$$**&&&&$&&&=&&&&&&&",
"$$$&&&&$#$$$$$$$###&&&&&$$$$$$$$$$$$$$$$$$$$$$$$$$$$$$$$$$$$$$$&111,11,,,,,,,,>>#$$$$$$$########$$$$$$$$$$$$$$$*&&&&$&&&=&&&&&&&",
"$$&&&&$O#$$$$$$$&&&&%%&&$$$$$$$$$$$$$$$$$$$$$$$$$$$$$$$$$$$$$$$&111,,,,,,,,,,,>>#$$$$$$$########$$$$$$$$$$$$$$$$$$&&&&&&=&&&&&&&",
"&$&&$&$X#$$$$$$$&&&&%&&&$$$$$$$$$$$$$$$$$$$$$$$$$$$$$$$$$$$$$$$&11,,,,,,,,,,,>>>#$$$$$$#########$$$$$$$$$$$$$$$$$$&&&&&&=&&&&&&&",
"&&&&$$$X#$$$$$$$&&%%%%&&$$$$$$$$$$$$$$$$$$$$$$$$$$$$$$$$$$$$$$$&1,,=====>>>>>>>>#$$$$$##########$$$$$$$$$$****$*$$$$&&&&=&&&&&&&",
"$$&&&$$X$&&&&&&&&&&&&&&&&&&&&&&&&&&&&&&&&&&&&&&&&&&&&&$$$$$$$$$$,,======>>>>>>>>$&&&&&$#########&&&&&&&&========&&&&&&&&&&&&$$$&",
"=&&&&&&&,,,,,,,,,,,,,,,,,,,,,,,,==;;====1111=====&&&&&$$$$$$$$$$$#######$$$$$$$$ X XXX##$$$$$$$&&&&&&&&&&&&&&&&&<<<<<<<<,,,,,,,,",
"=&&&&&&&,,,,,,,,,,,,,,,,,,,,,,,,=;;;====1111====&$$&&&$$#$$$$$$$$$$$$$$$$$$$$$$&  XXX####$$$$$$&&&&&$$$$&&&&&&&&<<<<==<<,,,,,,,,",
"=&&&&&&&,,==============,,,,,,,,================&$$$&&&$#$$$$$$$$$$$$$$$$$$$$$$&  X######$$$$$$&&$&&&&$$&&&&&&&&<<<<==<<,,,,,,,=",
"=&&&&&&$,,======================================&$&&&&&$#$$$$$$$$$$$$$$$$$$$$$$&  #######$$$$$$&&$&&&&$$&&&&&&&&<<<=====,,,,,,==",
"=&&&&&&&========================================&$$&&$$$#$$$$$$$$$$$$$$$$$$$$$$&XX#######$$$$$$&&$$$&&&&&&&&&&&$<<,=====,,,,,,==",
"=&&&&&&&========================================&&&&&$$$#$$$$$$$$$$$$$$$$$$$$$$&X########$$$$$$&&$$$&&&&&&&&&&&$<<======,,,,,===",
"=&&&&&&&==&&&&&&&&&&&&&&====****%%&&%%%%========&&&&&&$$#$$$$$$$$$$$$$$$$$$$$$$&#########$$$$$$&>&&&&&&$&&&&&&&$<=======&=======",
"=&&&&&&&==&&&&&&&&&&&&&&====****%%%%%%%%========&$$$$$$$#$$$$$$$&&&&&&&&&&&&&&&&########$&&&&&&&>&&&&&&$$$&&&&&$=====*==&=======",
"&&&&&&&&========&&&&&&&&OOOOOOOOXXXXXXXX########$#$$$$$$$$$$$$$&=&&&&&&&&&&&&&&&==,,,,,,,,,,====>&&&&&&$########$$$$$$$$,,,,====",
"&&&&&&&&&&&&&&&&&&&&&&&%O$$$$$$$###########&&&&&$$$$$$$$$$$$$$$&&&&&&&&&&&&&&&&&==,,,,,,,,,,====>&&&&&&$#$$$$$$$$$$$$$$&,&&&&&&&",
"&&&&&&&&&&&&&&&&&&&&&&&&O$$$$$$$###########&&&&&$$$$$$$$$$$$$$$&&&&&&&&&&&&&&&&&=,============&&>$$&$$&$#$$$$$$$$$$$$$$&,&&&&&&&",
"&&&&&&&&&&&&&&&&&&&&&&&&O$$$$$$$###########&&&&&$$$$$$$$$$$$$$$&&&&&&&&&&&&&&&&&=,============&&&&$$$$$$#$$$$$$$$$$$$$$&,&&&&&&&",
"&&&&&&&&&&&&&&=&&&&&&&&&O$$$$$$$########&&&&%%&&$$$$$$$$$$$$$$$&&&&&&&&&&&&&&&&$==============&&&&&&$&&$#$$$$$$$$$$$$$$&=&&&&&&&",
"&&&&&&&&&&&&&&&&&&&&&&&%O$$$$$$$########&&&&%%&&$$$$$$$$$$$$$$$&&&&&&&&&&&&&&&&$=============&&&&&&&$$&$#$$$$$$$$$$$$$$&=&&&&&&&",
"&&&&&&&&&&&&&&&&&&&&&&&#O$$$$$$$########&&%%%%&&$$$$$$$$$$$$$$$&&&&&&&&&&&&&&&&$==&&&&&&&&$$&&&&&$&&&&&$#$$$$$$$$$$$$$$&=&&&&&&&",
"$$&&&$$$%%%%%%%%%%%%%%%#O$$$$$$$$$$$$$$$&&&&&&&&&&&&&&&&&&&$&&&&&&&&&&&&&&&&&&&$==&&&&&&&$$$$$&&&$$$$$$$#$$$$$$$&&&&&&&&=&&&&&&&",
"X#######$###$$$$$$$$$$$$&=&&&%%&#######&,,,,,,,,,,,,,,,,=========&&&&&&&&&&&&&&&=======&O$$$$$$$###############$=&&&>&&&=&&&&&&$",
"#&&&&&&&&$&$$$&&&&&&&&&$&&$&&&&&######%&,,,,,,,,,,,,,,,,=&&&&&&&&&&&&&&&&&&&&&&&&&&&&&&$$$$$$$$$$$$$$$$$#######$&&&&&&&&&&&&&&&$",
"#&&&&&##&&&&$$&$&&&&$&&&&$&&=&%=#####%%%=,======,,,,,,,==&&&&&&&&&&&&&&&&&&&&&&&&&&&&&&&$$$$$$$$$$$$$$$$#######$&$&&&&&$&&&&&&&$",
"#&&&&&&#&&&&&&&$&&&&$$$&#&&&&&&=###&%%&&,,======,,,,,,&==&&&&&&&&&&&&&&&&&&&&&&&&&&&&&&&$$$$$$$$$$$$$$$$#######$&&&&&&&$&&&&&&&&",
"#&&&&&##&&$&&&&$$$&===&&##====%=###&&&&&========,,,,,,===&&&&&&&&&&&&&&&&&&&&&&&&&&&&&&&$$$$$$$$$$$$$$$$#######$&$&&&&$$&&&&&&&&",
"#$&&&&##&&$$==&&$$&&==$$##==&=%&##&&#&==========,,,,,,===&&&&&&&&&&&&&&&&&&&&&&&&&&&&&&$$$$$$$$$$$$$$$$$#######$$$&&&&$$&&&&&&&$",
"###&&&##$$$$===&$$$&=&&$#&#&&%%&#&&&&=====&&&&&=,,,,,,===&&&&&&&&&&&&&&&&&&&&&&&&&&&&&&&$$$$$$$$$$$$$$$$#######$$$$&&&&$&&&&&&&$",
"#&&&&&&#$$$$==&&$$$$&&&$##%&&%%#&&&&&=====&&&&&=,,,,,,,=&&&&$$$&##%%%%%%$$$&&&&$&&&&&&&$$$$$$$$$$$$$$$$$########$$$$$$$$$$$$&&&$"
};
