/* XPM */
static char *a92befd791ec45198bbc17958f50c86cFylcQQBR5kC5bJPC[] = {
/* columns rows colors chars-per-pixel */
"128 128 66 1 ",
"  c #55257D",
". c #572680",
"X c #592784",
"o c #5B2886",
"O c #5E298B",
"+ c #612A8E",
"@ c #642C94",
"# c #672C98",
"$ c #6A2E9C",
"% c #663193",
"& c #693396",
"* c #6C339C",
"= c #6E389C",
"- c #70379F",
"; c #70399F",
": c #6D2FA2",
"> c #702FA5",
", c #6E31A2",
"< c #7132A5",
"1 c #7139A0",
"2 c #7338A4",
"3 c #7438A6",
"4 c #763AA7",
"5 c #7331A9",
"6 c #7330AA",
"7 c #7532AB",
"8 c #7533AB",
"9 c #7335A8",
"0 c #7331AC",
"q c #7532AD",
"w c #7736AD",
"e c #7734AF",
"r c #7837AF",
"t c #773AA9",
"y c #783BAB",
"u c #793BAD",
"i c #7733B0",
"p c #7734B0",
"a c #7933B3",
"s c #7834B1",
"d c #7933B4",
"f c #7B34B6",
"g c #7C36B7",
"h c #7B3BB1",
"j c #7D3BB3",
"k c #7C3CB0",
"l c #7E3CB4",
"z c #7F3DB6",
"x c #7D36B9",
"c c #7F37BC",
"v c #7E39B8",
"b c #7F39BA",
"n c #803EB7",
"m c #8037BE",
"M c #8039BB",
"N c #813EB8",
"B c #813ABC",
"V c #833EBC",
"C c #853FBF",
"Z c #8440BD",
"A c #8237C1",
"S c #843AC2",
"D c #883DC6",
"F c #8741C1",
"G c #8941C4",
"H c #8A41C8",
/* pixels */
":$q#<@5$5:$d#q$::$$$:@$$$q$<#i$:5:q<q$5,,,qq*75,##$@#$#:@:@$$$5#q$p$q<,q,s<s,q<s$#<O<$$#:q@5$<#<,:q:x@f:f:<i:f:x$$:::@5$$$@:O:+@",
"7+<:<o:5+$5$@>:@O$$O@:++:<+:$#o5g#<:f@aq,<<s@s5,$$7X<$##::O::+$55+s5,$75@,ss#qp,O:@ @$o#+:@<$$#<q::q7$iq<$af#fq5+::#@q@O:$@:$$O:",
"$#:@$+<:$:@7##::@+$O7@d#:$@qo:$@$$i$,$:$,<<5$,$,@@#@:$:7$q$f$5:#s$s$q5:g<s,x5x$x#$5O<#$@i:X7$<#<q$a<x#g<f55a,f:q@5$$:@5###O:o$@@",
"$O$#++:#+$$$@$$@@$$O@$##>:O$>$+:a#75qOaa#<<f@fs<$<7+qi@#5q@55$:7x$fp,$ss,5cx#ss<:$:O$$$@:$$:$<#$5:q<<$i:q:<a@::5##$@$$#O##O@@@@@",
"<Oq$$$+<Oq$<$:q##$>O<$$O:5+:@<#:q$a$q#$<$e,x,s,e$::$<#$<$<+q#::@q#g<,,$e,5$f$x$5O@< $@$ ::O#$5Xqi$q<s+5<5:qx$q7a.i:@$$$@#:o$+#@@",
"$@<:+@::@$$$#$::@$>$<#5@<:O#$$+$<@$:$@5q#<<q#es<+$:O<<@@$:@$:@$$7#<,,$,<#*,,+,$<@O@O$O#@#@:#@$+$$:5::#<#$$$<$<#5+#O+:+#$@#O$@+:+",
"5+q<#<#iof>q@aq$:$:.qq$O5<+::<@<a$x7f$:q$s*s$7$<##:O,+:$$:+<$@$$q#s,$$,q$<,q#p,$.#$ $@@O<$@@$qOqq<:qi#5i<:q7@q,q.<:$O$$o@:.:$@#$",
":#$:@$:#@$#::$$<:@5@aO:@$$@$+$$:<#,:,,7q$7<q$5<,@$$+$$##@:O$$$$@q$5$:,$,#<$,#<,<$O$O$O:O<@:$@:+:$qi:f:x:f55q<g$x$<$$i@$$#,+:#@:@",
"q@fq,5,f@sp5#gq$1lh*klt*Nu1tly=ke*ve9<eB,7<f@x55:$a@s5$@<<X<<@$$:.:$O+$: @#$.$$.$$qO5:<O,q##qiOs$@+:5.$<<+<0O<5#@da#:q:@i5#7$$#<",
"$$$<$$$q$7,<$,<,l2N&C4Vt4l4Z=Zuyv,M,ee<<,5,7<7<5$#:$::<:#a$,$$<#5+:@$$+:X$o#X@O@q+:@q#q$s<<f$7$qO:$@@#:+5@$5O:+$5@<:5$<:<i$q$<,:",
"7+7q#,5q@555#q<$<4<&ut**ll&tkt=k7*er,*rB$qeD$sp,$5q+7a#$<$O<<@$<$o$$@@$:XO$$X$$O:><O<:>@75$,5q@q$#O:$o@@$O$:O$$@#<<O:<:$5,@<,#,:",
",$,$,$$q,s#q$qe$utl&utl*uu4n4uk4v<S<vves7x,f7x<f7:a$q#iq$a:75qq$i@d>$5:qoi+:@$#@a$q$c:q$5g$s<c#x@:+$$@5#:O$5@q@<<$a$5$i#5q@7$$<:",
"q+55#,5<@<75@$,,t*4*u1t1uu=klt4uv,rv<<vB$qfB@xf,$5s+xx$<q<#a5#:7>+>:##:$O$$$O$#+:$5@$$:$,<$<$<#<@@@@@O@@$O:$O$<@@q:@:::#,<#,<#<$",
"5#q,:s#g@f$m#ge$<kl*Nlh2nV=k4N4us<B<vrer,s,q$x,qq$f#f#a<:q:q<,5#5+d:$::qX5#q@<5@x>q+c5::5x$a$f#q+$o::.:@:+#$@:X:@5>+q#:$,5+7:$$:",
"<+,5$$77$,5q$57<h2t4h4u44u4uyutus*7e<,rs$<ff$ss,:<q$ig:55q#q,$7$5$<$:$$7@:$$@#$#q#a:5:$55q:a,5#a@$@#@+@+$@$:+$###::+$$$@$<@#$$$$",
"7@s,q$qx$xsg+x7#<uN%Nuu*nn1uuu=n<*v7<*7v$s,c$s55q:f#a:q<<7#f<#5<:oq:+@:q.:::@$iOi$qO5q#$<q+<7qO5+$ $@.#@#O$5o<@@$$iO5:$#:<+5,$+,",
"s,B<e<es<h*v<7<<:$,$<$:,$:$,#<$$*<t*<*<<*<<<*<s*7:<$q<$:$5@#$$q#s$q$$5<7<s*e*<<,5$5$<$<,#q,s,x$x<h*ht<v<k12l2uut,,<$,,,<#q$q,q7$",
"s@sr<*fB@svs%uv*$qq#xq$#qi@q<5@fN*tuu*vh%j7v&ve*:5q@qq#7<<#<q+<:q@ss,$5x&7r7@<e@<,5@q,$$p,@<<<+,<4%tt=uvt4lN-NC*,sp+sq<,sq#q5,$q",
"s*M*M9<s,v*vevh<f$s$q$q5<,$5#5,$<<l<h7<h*7<v<9<<q#,$,:$:#,##,#q$f,p$q$qq<s*j*rv*f*q$7$,q$x#5$e+f<l=tu*huku4C2l4ux,p,5$q<$s$f<g$,",
"7#77**ss@<v<&<7*$:<#qq@#:q+755@qu*hh7=hu&<7v@es%$5:O5<@$:$@$7@<$<#sf<$7p*<r<<<<*5<7@s5#<,,@,<5$<<t*<t*th<1uk*lk1<qs@fs5#fq#5,,#7",
"j*M,9,<v*v<s*sv*5$g#5:5<<i$5$q,7N*S<N<ul<77h*7e<q$a$55#q#,$$:@<#x#f<q,ff*B7v<7u*sq5@77$q$m+f#sOf<u<hv*v4tt4F*ltyq$g$f$p5,f$s,x$5",
"9*7777rh*eerer<9q#,#q::#55$75::5h7huu<hu<eee<e7<5i<$5:::$:#:<@:$<$s5<,$5<*<<*<7*<$7,<*$<$,$q<q$,t74<<=u44utt*u4t$,5$7q<#qe$5<<$,",
"B*B7e*ev&vev*vM*sqm#f,q$qf$xqa$5H<HhS*SS7<rH*Bv*x:q#qq@iq7#55$<:f@p7q#ss&s7v*ev*<5q+75,,fq+q$e#x<<<tv&ut44uN*Nlt7sA#c7f<qs#f5q<q",
"7*v*s<s7<s<v9e<e5:7$7:q:5s$i$q<,t<v4v<l<e<<r*7<<<:,#<$$<@$@$$$,$7$q$q*s,7s<s<7<<<$s$5$<$**$<$5$,&tt*t&7*t44u<t2t<$,*g<,55p$q57<,",
"x@q5:@fsO:>$@5:#<eg$geq#hv*vu<<hs+<<q+q5$@:qO,:#,$q+fq+,7e+er,,7:o@$:X$$@$<<O<<+<7<%77<%77**7e@s<$$q5+q,@#$5O5<@;tN=Nut1eh%vv7*v",
"<#f#i:<<#5#7$$<$s<g*e$pq<M<v<eh*,#q#q+5$<$#:@:@$$,:$:$$<*h*<<<7*$#<@7O,#:<@q@q$,9*e@v&7<,*<s*<&9$*$@<#5$:#@5@:@:y=t=k=14&v*e*h<,",
",@<<$+<<@#:++$#@$,,@sq*#7e%7<<*e<O:,$+a<#+55O$5@#$:Oq:+$<r%se**7<+@:#+<$@+$,O#$@*<<&<<<@r<**9u&7$$<5$@7<@#<qO$5$&yu&4u4=s7+<e<%<",
"i@g$7$5<@7#:@$<#5,g#e$qe,h*h97e<<#q$a@q:$5$7#i$<<:i#,i#q<B*s<7<7,@<#5O<$$$$5#7$<77v*s<Me<v<u*v*j,,5$f$s55$<f#a$qu1n1l4n4<e*s*7*7",
"<$,,$#<$@$:#$$:#<,5$e<*$7s*7*s<r,$5<<#,$$#$<@5<$<<7$55$57r&7r,,e:#:$:@:$$:,:@,#$*<e,777*77*77e&e#<<<7#iq$:<:$q5$1kk=uuu;ss*<s7*<",
"f#x55$qs@5:>#5<$5qf#mq<e<M&Mve*sq#q<q#xq@<5x+f7$7:x#mx$<7S*B<v<hq@5<<#a5#$qf@s75ssv*juv,vv&v7s%Bq:77x#A7:#qf#f:5utZ4Z4N1sv*h*<<<",
",,5$5,<:@$$:$$$@7$<*q<*7<v<r*v<<$:5$<$<,5,:q$55$<55:5:5,ev<u7e<7:$q$q#<:q$5,,:$<<<v<B9h7e7<s,r<<$<5:q#i55<<<:5$7unl1Nuky9j*es977",
"c@qq:#sa@q<:#q:+5qf#se*,7v*Mhr&s5@:$<+5q@#<q#qa$q$x@ga$5hB*S7h*vq+,<5+<q$$qf@q<,<ss&rhh*vv*ers*Bx$qqx#fa::da$q:q;NZ4Nln;ev*j9,ee",
"s$x$q<,<$q$,<#$$:@<+q@:$$<$5$$,$,77$s$s<7q$g$7<<$@$@$@$$@<@:@:@#$$5:q#f$ga<a,x:g:@5+i#i$$>$5@q@:<<s<f*f*eq<f7s,m$$$:q#5$:$@:@$$@",
"s$q5,$ps+5q$$qq#$75O<,$@<7#,5#@<q<,7q#7<$,5f#qe##$:.$:@@#$.#$@o$:##:$@55:$aa#,a<@<5@$:$+::O$::O:s$5es#xp<,qx*qfsOq7@$55o:$O$$@+$",
"s,Bqsq<x$g,qs,q57$aOf$5+<f#qi$7qe<s<x$fe<ses,<5<:O5@5$#:+:@5O:@@<:7$a+x$A55A#mqf<$i@i$5:>:$<@5@5e7x<A$x7x77e#x,s$##$7O:O:@@$O$@@",
"e$f<q,xf#q7<:qx<#5q@5::$,5$q$,<$<,<,7$s7,<,7*pf#@<$O$$$#$#.$$#o$5$$::$5557q5:5qq$$5#<<$$$<+#$$+$e,<5e,f<,<e5$77<O:$+#:$O#$.@$@.$",
"x$qsx$fx#g7,5sa5a5qOx::+qx+aq#,qx@<xs@ee#7qf#<s,<+5.:$o:+:O:+$O:$$$:<.5<:$qiOq$7#$5Od:$$$:+$#5.>e$7<s$f<e$7m$s$B@$$@:@aO$@#@O:@@",
"<7x<sq<q$i$q<:q$5$q#q$7$$q,s,q5#5<s$s$7<*s$7$<,$#O@O@@@#+O.@O@.O$##@$@$@:<$<$:#<$O$@$$:#@$+$+@@$,<5<5,<<5<5<$<<<O$#+##@O##.O@@ $",
"p<5ff$fx@xi$:xq$:<7o,$$OqA@<q$#qs#<s<$s7#5<g#qs@$#@ :@@+@:o$+$ :#$#::O57:@qf@q5$@5>@<:@+$:.:#<.:s$e7q$gs,*ex@e<5O$:@$@<.:@#@O:O$",
",5s,x,55,f$5,:<$q#<@7$5@75$f,5<,q,e,f,se<s<x,<q,#+$O$@@@+@o#O$o@$$$$5#:@q<,a:q:7q$q$i$5$$7+:O<#$<<s,q,s,5q,5,7,e@$$#:#$O$$@@@:O#",
"$@@$:O$$.#:@.$$X$5$@:$:@<<*<<<*<@+$<$O:<.o$$ @: 5$$@5<@$<5O5$q+q:@$<5O5<+O@$.$#O$q:@q5$$7q+q75@q5o::$O0>$#5q+::5O75#$5ioq7:$qf@x",
"@:@#:O$@@$o$O@$+5@7O<#:O7e@e<7%e5O<O$@$@O@O$++@+q@7$$:$:@>$:#:@:#$:@,@5$$+@5+$#@q#<<::$@$q$i#7$5$@$+$@$+7@$$$:@5#$@$:@:@,@<$#q$,",
"@#@@@O$:o@$@o#+o$$:O:@$#<e*h,h*,$@$:@o#5.$$@o$@.<5#Oqq+::a+q:i+q5O$<:O<:+o@@X@@o<$$#:$$$$<@,<,+$@o$@$O$@@@$5@:::+::O@<5Ofq#$7q#a",
"#$O::O::OiO:+$:Oa$qO::$+hv*eu7*h<@q@<#5<O$+$Oo:Oq#q,#<$<$5#i$7#$:@7@,+5:+@#:O:@@<:d#57@$5q@5@5$:$ :O:.<@$$::@q@5#:@$<#<@5$<:#,@:",
"O$++:@@$+$+@O@@+:$:$a#5$<v<B,v<,##$$$@<: $$O+@$.:5$@<:@:5qO5::+q:O$$:+$,O+@$O$@@$$$@q$$q$$@,$:###o@@@O@@@$$$@$$$+$$O$$$O<q#:55#:",
"$Oo:$.::O<#:o:$#$<5O57$@7v*7e<*e<X:$$:$5@$@@@@qO5$7$:q#<:a#a#a$$qOq:7#f$@#@:.<@@#<a+55#$<i+q:q#q: :#$.:@@@q5@q::@5$@:$q@a$$5$<#s",
"O$@O$@@@@$O@.@#O$@:@7#::7v&B<v<7:#5$@$:$OO@#O@$o:$:#:,#$$q@<#$@<$+:@:+:#@OO$o@O@$@$@:@$$#$#<#$#$#+$.$O@O$$@:@<@:@$$@<$:#q,$q:a:$",
"@+O$$.:$o#@$ $@o@::O$5@#u7&eh<<r<#<<#$5q.:#@O@$O5$:@::+@:7Oq$<#$:X:$$.7:+@#$ @@@O:<.::#+<<X<::O<$ $$+o:$@#q<@q5:O5:+:$5Oq5$<5a+q",
"tlt1C-tt1u;k;u1y7*s*v5r7,m,x,x5ef#x$i$5<$q:5$#5#5$$$$::$$,$5#,:$<*e*r*7&4y;4;u&u,#<#q$q$$<#$#<#:41u%u;tt4y1l=l1y,7<<s5s$a:5<<i:7",
"4*ttu=ky;yty&kk;,sf*se,<se,ee<,sq#aq5#im#qq:$ac#75$@<<#:<5#75:#59*7<9@7h11yk=ulu$7q#7q5$7,O5,##<u%kk4=tt&1uu&yu4$q<,<7f$xq::aa#q",
"N&k4l&lC=ntn=k4ls<B*B7g*gB<e<f$sq#s#5$<q#f$f$,:$i@5$577#<q$c<x5q7hh7v,S*kyuZ1n1N,qf,s<m$q7#q$q$<u4ZulkNNuNtZ=Hkl<gx,m7s#f::g$i:i",
"4<k11t<41utu=uu1,7e,e<,,p*,e<s57:#<5$@55@,55+,:#:,5@qq#$5a#<5q$a<*<77*974ttu1tuy$,5#q<<,<q@:5$#,l4lktuyktukn4ku47<7<q5s,77:#55#<",
"N=kk*kkV&ktZ=Nkkegv#vsg*xx<ssx$s5#i#f$<a$q@c$<$5<$x@q$,:5x$x5x#ge7v9v@Ms41tl&n4u$gx#m<A$x<:i:s@qk=ZkZuNG=ukF&GZ4<fS$Aqp$fa:q:f$5",
"ktFtt41t1k4u4k14<,e,e*7,7e*,5s$s:$55<@q<$:7<Oq<#$$5#5<:,:5:a<i$q7<s<e<e,y4yN44tu,<7<q57$q:<$$<$$l4kuk4ul4FuNtNtkf5s7gese7q:q:q$a",
"V*NV4tNN=kyV&Nnu*se@ses,sB$xqf+B7$5<m:qq:,$f#,:<q<i@c5,:xm$xqg#Sv,<vS&vvu4nG=Nnu$mf$g7x#qqq$qf@sH=ukn;Zn%ulN&lNt<sm$fp7$5f#5:f@5",
"ttk1l44u4l4N1k4u<,9*f*e7,<<e,5*<@:,$$#q:<:55@q5#:$<+5$:::5:q,g:q<s7<9<B*uuyktltl7<7,f,g$5$<:,,$$1uu1u;tttk=u=t=t<$<$q**<$<#:$5#<",
":O:$#@5:@<5$@q5$1ul&hut=kl=ykl=k5<$eq#csq#sx@f<,<7v@her*Mh%s7s&v:@+:5+<:$#<5O55:$sg$q7q$vv7<js*vs<$qq@ss$,qf@5<,*7r%7e**<j+<7<%v",
"7@<$:$:q@i:q#::$h<u*k1Ntku1y4u4N*q5,q,q,s<<q$5,q7*v,v7v<<7<v*B*s$::#5@g#q$:q#>:5q7A,BeA*BshueB7e,7q,s$x<ge,s$f<f<<B*v<e<,j*v<M<<",
":@$$@$::@$:$$5:@<hk&nl44uNyyll1Zfq$xs@c7g#mx#ms,esh*svr*MS*7sr<M:@@$<@$:$@:7@5:#,sq$ssq,hr7esh*Bx$7fp#ms<$sx$ss,<Mh&hh<*ve&7<7*v",
"fOq$q$<a+d<q#5q$lkNtN4C*Clt4yk4n,e<<5,f,s$7q<q,7s<B*s,h<,e<M<v<v$$$$7Oi:5@:q@5:$<,x#f,g$hu<<rB<v5$g$f$x<fe<x$x5s<7V*S<v<<v<v<v<7",
":$:$:$:5#5@5#>:#thk1yu2*u414tu=1<5$<<$se7$sq$se*7<r<7<<*he*<<7*<@+$+$O$$$@$$@:#:<$,$5$<$7u<<<s*j<$<5q$<7,,7s:q,$7t<<hh7<7s*<s*,v",
"m+fq:$<qO<5$O::@-uu*k4l=kk41uk=n*<$gq$m,x#s5$q,7<rv+j7<*,v@s<<%r$@@::.$$$o:qO5<#*eq+<7e@ve*<sh&s7$s,7#s<$<qx+xf5<vC*M*477r*v,,7<",
"5:q:::$q$q#a@:$#t14<44h1k11u1u=y$,$,,$<,$$<<$<$#**<*<*<<<<*7*h*<$@7@:+q#>#:<#:@:7$<*<,e#e<7<*e<7$,<,7$,:,$$<$5$,7<e<t<<7<e*7<***",
"f@mq<:aaO5q5@fq:4lk1kkN&Zltutl=l<<#q<#p,5#q<#7*<<e7%vh<*7h%v7<%s:O$:5o<:$@qq@a<$$qe$*<5+re,*ee&v7#,<<+s<#$,sO<,,,<v%h<<<7r@hee*j",
"x<sf7f5x7s,f<q<7#$$@<#$@:@$$@:@$*r,<**<*<@,*$,#,@@$O$@$$@<@,#7::<@x#q+5#a@q,#7@,$###:@qO$@$@O$O@$:,$:#$##$#$@,+,@+@@$@@#+:O$+$#@",
"c$mx55xg#sg5$xx<@5<O$:$Oqq+O:5O$<<&he*,7<@s,#,<<O$$+$:#@5,@:5##$:O$$:@$$$O$$@#$$O:$O##$O:+OO$$.$q@#5:+<:$+:,X$<#+:$o$$+O#$X$$@o$",
"s,s57f,m,g,m555x::$#5+:@<$5:$<@5*e*<,,7*7$,<,7#7:#:.5@$$#5+q$:$5f+x$7Oi$7OiqOq:5@@:@:@:@@#@$o#.$#5$$<$:$$<#q@q#q@@5@>@$$@<Oi@$#@",
"q#fs,$gf$qf<$sx<@q:+$:#O7q@@5:@$<7&h7*<77#q<$<<,@$$+$$#$:<#:q@:$<@5#<#<#<#,#$5#$+:$+::@@$$oO@$ @:@#5:@q:@#$$O$:$+$#X$$O##$+$#$O$",
"x$x57q5g*m,s,7q<$$$$q+:@:$@:@a+5,u*<,*9,7$<s#s5q@5i+f,$<:q#qq:55qOx7aOfq$#7q+q<i@:5+q:$$@:o$O$ ::<<:,$q<@f$i+g:5$::O5$@$#i.5#:@<",
"7*qq$,<s$,<<$,5$O$$o#:#@$5#$5$O$<7*<<*<9<$,5,<$5:@,#,$::$q$<:$:$:#q#<#5$q$<,#<,$#$:#::$#$$o#O@o@$$:$<+:,O#$:@$:#@@$@@$+##$+$@$+$",
"x#f7<qss+f,<$eg,$@$@<@$::a#:$aOf7e,es<ssq5gA#sq5#,<O7<#:q5#5i:::5O557+55a@qi@x<5$qqOq::@:5o5$$ $5#:$5#5f@5:a+qq#$:>.::@@#<.$$#.<",
"5#<5$<,q,<$<,,5$@$:O@$@@$$@$$$@$,e,<7,h<g<,e$q<<<#5#<$$:$q$$$<:#<#a#i$i$5,:<$<$::$5$q$7$$:@5@:##,:q#q$:,@<#$#$$#$@$@:#@$@:@$#:+#",
"$O$<X#:qX5#$@<$<$$:@7$:+r7*<<v*v@@@@:.:#@+$:.$:O#5,@:,##a7@5q$$75o#:$.<5$@pf#qq,tkN=kN1=lF=Nkt=kq+,7,@55@<,<@57@4yy&kk14k4*kl4&n",
":@:$$:@$@$@:@###@$@+$$$@<<*,,e*7@@O$@O$O$$O$@$O$$$q#a$$5$7$5#<<$:@$@5@5@q5,g$s,7l1N1Zyuluu=k1ky4#:5#q#:<$q$q$,<$u1ktk1yk4l<t1V42",
"#@:<@$5qo<::@,@5#$5+:$5Ors@e7v@s@+@@$.::O$:$O$$@:7<#5,,#7i#<5$#i5O#<#o::,+qf#qq,yuk=lk11kF%Zku&l<#$<$@qq$7q,@<q$4kt=kl=llu&Nht*h",
"qOq#:::$$5#s#<$$$$$#5$q<ev9s<s<s@@@@:@:@<$#q@5$$5,c$s55,5f$x<g,55#7+<o<@q<7<,m,5l4H=Z1Nyuyyu;k41,:q,g$sf$S<g,sq<l1ntlutktS=N=l44",
"$@aa@#aq@:s5@qqi+xa#aq:#sv&rvh*v:+$:$.>:@@:$X$<+57i$q$q$qa$5,q,5$@#,:+$,,$5s$$$#4u4&kkt;uu&yuy1y$@$5:#75,qpf$rq,4Nu1kk4yhh&utt44",
"d#q#q<<5$f#x#a$a5$:qa:qqeB<B,v<j@:$@q@:$:@$a@q<@g<xOq<q$qx$mqs#sf@7#7+g$m@x,$s<5l4Z4H;n1Nl1k4Z=kq$q<f$qx$B,f$sq,Z1N=Nk&lul&Vtl4u",
",#q5:#<5#$q5@q7q#c7$5f,#vM,svv*v$@@:@ :@$$$$O@++<<<$q:55<s,5$sq<##<$:+<$<<7p#55,4kk=kkn=lk4utu1k$$q:5:,5,<<e$5q,uuk;u11t=h=t*t<1",
"a@q:$$qq#a,q#x,q5:q$5:a#vS<BeS<M$$$@5.5$@@$<o::O$:a@f75#si$gqq$s5O<<qOq$s@pp#g7q1uZ4ZuN=FNtulZ;nsO55<#<i#sp5$sx#n4N%nk14kk%Ntu=l",
"e,777777<e77*hv7<p5,s<q$qq#qqs,suyk4k1u477<v<<<<7,5,p,77$s$q$s<$v<v*h*r<<,7<*7,e$:<@,,5#:q#5#5$$:$5$:$,<@<$5$::$$@:+:@#:$5$5:q$,",
"j*hM<*vv*veC*Deh,xs$sqf,xg$x5A$AN4lNk1ZN,,se*eB,*se$eq<$qq#,<,$sh+hhu%h77*hv*sr<$$5+5$$@5q@::$+<<O,q<$<q+,5$#<:+$@$.:$+@57@a$<+5",
"v<s,eh<h7h7M<M,h5777q,q<55$s<s<qynF1FuN47j7S*M<re<s$f5s$5e$x#f$5e<v*u*v*<<<<,e*e<#<+<#:$$<@i$5$,5$s$7#<5$q$5@,5$5O<@$$$:#7#7$f,<",
"h*vM,*es,<vv&hvh#ms$<sq$mq$q5f#xk=klu;nk<*rs*7s<7q7#qq7,7q$57<#7v*<he&7h<*ee@ss*#<<+$$@#$5@:<$#<q@5,$#<<#$,$#,,@@$:X<<o$q<#5<$@,",
"v*sr9h<v*v*V,B*M<,q,s$7*,$5s$s$qk4Z1N1Nl79hB*Mvss7x$Aqs<fA@x,f#fv<B7v*v7<7eh,s77,$a@q#,#:a@q,7#qs@f,s$fq$a:s#5q#a@$$$$@<$7+<#<#,",
"e,7<*<ur*e7h*hr,#f5$,s5$xs#<qq$5k1utk1tt*<<e*7<<q,q<q57<ss:p75<,v*h<h*e<*,,7&<,9#$$+,$#:::#<:,::<$5$<$,<#$:$@$$##+#@+$X#$,#$:###",
"B*vs7<hv*7<V&e<v5*s$x*q,5q<f$f$sk=nyu=nC&7er%sh*,7s@q5<<7f@s<q#qv%V77*Mh&7ee*v7*@,,#$:<O5i+<:,@5qO5$<@qq+5:<#<<@:$@+<:O<<s@i$<$7",
"7*s<e*s<<<<7,r*<$,q$q,<$q7#$5,$<4=y1t;4t&r*v*e*<5*5$<,$,$,$,$q,$e*7*7<***<*<*<*<$$$$5$,$$5#<$q,$,,f,5,qq:<:5$,::$#5$:$$:$<$:,$$$",
"q@q:5Xaq:@77+$::@qs#,q5$q<#<#q@q:O5::O:qO:<,@<q$$ss#f7*,pp#f77$p<o<5#+$>@@:7O::#@<q#<qq@qq#<7#$<$.$:+.::X5:@X:5.q<:+5<+:7q#f,<$q",
"+$q#<O5O<#$<$7@77<5q7:q,5,@<,,$<:@:$>$:5$q:q$5<555s$f<ee<s#x,7,$<+<+:$$@$$@$#5@7$<$@<$<$5s#s$7<$$O:O$@#$@$O:O+@Oq$a$:$$:#7#,@5$$",
"5O$<$@q5$O:5+$7,+qs#qq,#qq#q<q@55@<<<@:5+<5$+5a$$se#77$$<q$,<<#<$O$:#o:$+@$$.$<@O:,@<$$O:q#<5,#5@ $$O.@# #$+o#$o<q$@5:+$q5@7p<$<",
"##,$qOq@:$:<@q+q$x<,g,q,<<,,$s,:$$7@:@$:@5$<#:@<,*q#s,5$<q+x5<,<<O5+>@$#,@$5+<@q@5$#<#5+75@7,s,,$o:o:$@$O:@q#@$@s$f$55<,$x$g$s,s",
"$@$$$@$###:$+$:$$<,#<$:$5q@7q:$q5@$<$#:5@$<:@$$$$$<$,,,$,5,<,<,$#@$$#+$:$+:<@$<#@$:@$#:+5<:<,,$<$O$$@O::O:$:+::@55,$5<::57@q7<,q",
":+#:7.q$:+$q@:#q#x5:q<f$5f$f$7,,>#i@5+q:@<$5#5$q#5g#s<<,ec@sq$*eqoq$:#<<5$<:+q$a@<,$<$iOsg#s7g$qq.q:5+<iO5$$@$q+x<f$a5:$qx,x5eqs",
"#<$#$@:#7$:<:$::<:,<q:7<5q$qqq:qq@:5$O<:$$:<@:$$<,7,5<q7<s5q55p$>$>@$+:#$@$$$<$<$:,#5::#5q,q,755@+$@$O$$@$@:O#@O:$,$:$:$<5$575s<",
":$#q7+55<@7i$$5a#As$xf7,fm#mqq5qx#a:a@x<$5<q@a:$<qe#s7,$7s#ps$<s5o<:>oi7$@aq@5<q@aq@55<@sq$qq,$s$@:#<O:5o>$$+:5Oxqq#f7:$fx,A5<<7",
"$i:5q$q#q#<5$<$i@#@@$O$@$$@$@$@@s<ejh,s7<h<u<uu<$$<#<#:$@>O$#$:Ox#q$q$q:e<,s*x$x:<i:m:aq7S,x,s7suyN4ZklH1NyFtluuf$s7q,55@:#:@::@",
"5$$75+<5$O:5+:<:o$#.$:+o$$.#$+.$s*s*h%ve&7tt*hM*>:qO::#+:$.$$O+$<+iq<#if7$es#ss7$ia:<qa$<s$pgq<mN4kZn1lN;ZkN&NZ45gs$xx,,5:O::#+:",
"$q$$q$a$:$$:@5X:@O@@$o$@@$+:O$$Oe*v<r*h<tu7Vth<7:@$O5+:O+$o#@O:oq$s$i:a:5g<x$A<s<qA#Aqf5fm$S$x,7N;GtNyZF4HkZtku4q$x,q,ss@:+q+:$$",
"<@#$:O<<$$55X$:$.$@ $$o@$5o$$@+$v*rrs,hv<tvh*vN*#$<O:$#@@@ @@Xo@<#5<,$,q<<qp<,<77:q<qq5qqs,sqs,su4NuF4uk4Ntk=yk4q<<$ss$,::o$$$O#",
"@5$$q@5$:#$q@a@i@O$o>@@@#:@<$:$#B*S9B*Bv<u7N<Ntuq#7oq:5O$<o>$@#$a@gq5#xi<qef$sx$<qm#sqq5gB<B5x,fC4Nuk;Nl&nkl1nN=f,g,q<<7+:.:@#o:",
"<#$$:@<:#$#$@<$$O@@.@@@+:$o$@@@$7<er<<<7<2uh=uu*$$$+<@$#@@O$O$@O5,q$q<<<55,se7<$a:a:a:<5<<$s$5,,t=N=n1tl;u;u414t7,$$,<#s@$+$#$@O",
"$:::qO,,$#:i@5$q@@: :$+.5:@,$#X$h*7<s&eM=h7v*vt<q$7Oq5:+:<.::@+$qOxq5+aq#qse$7e$:qa#q55,ps$fs5,sN=tnt=ll%kku=kZ&<qe#7p@<+$ :$$o5",
"##$#:@<#$$#$@:#$o+@o#O@@#$@#+$@$<es<7*7<*h<h*74*$#$@:@##O#O@O@@.q#7#7$<$**$s$e<<<:q$a:<:,q$p,77,yyN1N44l4k4ky141q,<<,7#7O:o$O:@O",
"5$<<,@e7#$<5@q5#<<h&Nh4=Nl1nku=kh**es@rh#e,<+,q#$:<O5<$@:$@$$$#$@.#@+o$##$q5+,<@$<5#,$$$9e@7<&*<qO$<$#<7+<i$$qq#rse*ve@<uu*luu-t",
"$7p,x$5<55,g:<#<t&t&v<<*12t41u;t*u<*7<7<<q#7#$$$<+<#<#,$:,@$#:@$$.$O$O:@$:@5@<#,<$qOx,q,<e*u,<<,#:a@,,:i@q$q#<<#s,v<<7<htV-N*u=l",
"s,,qf$xf,,q7@7p$*uu%tuu*ll4ukk=us*<s7%vv#,<5@<p+:<:O55$#,$#,#:##+.@@+o@@#$$,#<$$,,<$,,,$<h*ue<*7<#:5$#:<@$5$$$:@h7<*vu*<kt*ukktt",
"f<g5x$As57<x$q,qh<v4C<v4Nulk1n=n<<7*v*77$5$s#,$$5#a#7:a$qa#5$s#f$o5o:.:$$$5q#:<<$5g@s,5q9r*v<7<<q@q$q$$a@s$q#5q#h<u*ev*vtS4HkN1H",
"q,xsq$sp<qfq$qq,4hh*luu*Nk41Nl1u<*777*7e$77<#,<@::q$7q5:<<:<$a:$@O$@@O@@$::<:5$<5*5<s5<p<v*h<7<<,#:,##5<@:$<:#<#<79<<7*stk<y<h24",
"x$gqx$xx5<7m#sq5htN<Ntl*NutC1Z&ke*S<v*DB77qS$ff$f5x#xsf:aa+a<7+q:O5O$.:$#$qa#$<,,px+fs7<sv%vj<*vi@a$5#$q+5q<#55$e7h9sM*7hn=Nlh=N",
"7<<$q,<<$,<5$<$,ttu&ht<*yk;1yk;17*<97<77<75e$5<$5$<$q<<<<a$5:5$$@.@#$@#+5q$q<i$fq<x,Sqsx<S9s<rB<5$5:<$<7#q$x$<5<7<u<<e7e-l*k4N4u",
"s#<5,@xq#:<5+q5$4<h%h4<*lu&l1k&ku&jr7*hv#,qf@qq#<<q+q7,@5qo<:$@<:O:@@O5<:$xf$,f<<sx$ss<qvv%BM*7vx#xs,#qi+q<7@c5$<ev%vs&<tk&ttu&u",
"4<v=h*u<4<<h=<=<$@<#:@$#@,@$+,#$**<*7<*s$a$5#$:$7$q$5<5<,p$x$s*<l4u1yu1k7v<s<S*S:$a$q:57:x#q,<5$a:a:,,q5<s$x$q$,:#:#:$$<$iO5#7o7",
"h*hht&NV*<u7%hh&$q$oq5:@:$O::$+,r@r7<<sh#q5<$,x@fs7#ss<$sq#es<*sl&Zkt4HC*evv*hvs#:q#q:$::5$q<$$<i$ff5#as$ssq$fs@$:5o5:$$$<@$$<@:",
"u<t<C<N<7u<v*u*t<$,#g$5,<q@<#7$#h*v<v<sB$m<f:i5:s,m$ssq,ff,S5x75Z1N4NluN7s<D*S<B5:x$a>q#5a@a55<<c$x$a:5x,x,m#x5,q:x$fqq#<7Oa$a+q",
"4<thu=Vv<7hh=tu<:55@5q7$75+:5$#:e*77<<<h#755$:i#qfq,fq<<sf,feq<eu4nNt;ul,7<h*<r7+:5#<$::$:$$$$$$5$q7$$5:<p57$<q$<$$+,:$$$$#$#:$$",
"vtu4C*ShtvuC<CNug,f#mq5,<q@q$55$M*M7h<rv#x:c@a7:5,x$mq:<gm<xee,en1FtZuuN<ehj#ver:55Oa:5@qqoa<$,$A@g<q$qm,7sS$gf$:$gOg:q#5qO$agOa",
"<v7<v*7etutvtut77:f$55$<,q#<7$<<M,v7e<ev$c7f$7,,57q$<7sq7<,sqee<k4kku4lk<<,h,<7e@$$:>$5$$<$$#@,#<:q:q:q<ef5s,s5sf:a:q:q::$:>+>$:",
"h<uuv=VN<hhv%vN*7<g#xq,iqa#x<,q<D*Ssv<Sv#qii#qg$<<f$Bf$,gm#s,7#el&G4n1Fk<*ss#<97oq<o$$>O5<Oa<@$$x@fqf@af5$5s#q5#$5s@q<<@qq@$7i+7",
"*<t<u<h<uu<Ntut<s$a:5:5<$q#<$$5$r,r,r<<r$f$c#i$<5$5$5,<q,q,7*75<u4utk44177<<<s*s@$@$:@:$#$$$@#$@:#$$5$q$s,<e,x,7q#7$i$7$:$$>+<#:",
":O$$:o5:@$<$@q5@7Mh%ve*<qa@fa#$q5X5<@@5:+:<$O:5:,ve*ue*,hl&uv<*hq@<<,#q<$+:5+$::+e5#,5q#ss*vs*<<7X5$$o7$@+,:O::#*fs*vve*vv,*vM*v",
"$@<O:+$@#,$q$,,$v9e&s7u<<s$,q$<$,@$#:$$:#5#fOf##s,v*vuv<tN<N<vth$$q:5+q#:$::$5$q$5<<<$f,sv,v<ev97#:O5#:$<:$q@q@7eev<v7B*B7vv<v7S",
"#X#:$X5$##<:+<$@<<7*9<,*q5$q5<$55+5<$+$:O$<<+$:$,7777<<&4t<<u<=u<@,$$:q:$$#$@$#$+s<$$s5$sv,rs<,7:o>$:.$:@@55@$<$,sv<rsv*Bv7<Mv*r",
":+q#<O::@5#<@5#$<7v&v<7<:a#a,,<,:+f@5#f<<5$q#a:<7<v+M7<*hh*h*v*u<#555Os<:@7q@<$7$7,,q$x,sh*B7h7ra@<@:@i:::75#f$q7veev<D<B7vs<B<D",
":+$#:@$$$$$:@$$$e*<<7<<<<5#5<5:::+$$$@$$#:5:#:<:77j7v*s7ht4huv<t5$i#q,q,57:q:5$:$7q,<5e,he<s799r$@q5$#<$$:<$$55<*s7<ver<s7<<vv*s",
":O$:qOf$<$,iOi::<vB%vse*<f@fq<55<O5:q+<5@5$aOa::,sS%vv7*lN<utv<Si#5f<#cs:$ax$iqc$Sx$mqm$vB<vrh&sqO5@5O7$#@q5Oq::*v<v,eS%Shvs7B*M",
"$$5$:+:$::$5:$$,h7v7revh<x$a$a:q<:q@q#:$:$:5:::,h<Bev<BeultNtV7u<<x$g<s5<q:q5a$qe7<qm75,sr7h<v<<$#$@:@$$5$#,#:#5<77<<<h,7,<<<9*<",
",#$<iOg5:#qqO5<$<SB*Sv9<ga$fqq$f5O<5$o<q@755#xa:<BS*Sve<VV*hhh*Nq#<qq#fx$#im@5qa#Be#sss#Bv<vsv*vfOa>7X7:$+<$O$$$@s7<7er%vs**eh@r"
};
