/* XPM */
static char *f67ec5aefc9f427088dc81ef1cdadb1dudvVOhKWcmB0vVt7[] = {
/* columns rows colors chars-per-pixel */
"128 128 71 1 ",
"  c #1E1209",
". c #24150B",
"X c #28170D",
"o c #27180C",
"O c #2B1A0D",
"+ c #311D0F",
"@ c #2D1D11",
"# c #321E11",
"$ c #34200F",
"% c #352213",
"& c #3B2515",
"* c #3E2817",
"= c #3C2718",
"- c #3E291A",
"; c #262626",
": c #2D2D2D",
"> c #3F2D20",
", c #333333",
"< c #3B3B3B",
"1 c #402717",
"2 c #412917",
"3 c #402718",
"4 c #442C1A",
"5 c #492E1B",
"6 c #47301D",
"7 c #4B321E",
"8 c #50341E",
"9 c #402E20",
"0 c #4E3420",
"q c #513621",
"w c #553923",
"e c #5B3D25",
"r c #5E3F28",
"t c #603F28",
"y c #5E4026",
"u c #5F4028",
"i c #614127",
"p c #634328",
"a c #63432A",
"s c #644328",
"d c #664329",
"f c #66432A",
"g c #66452A",
"h c #67442C",
"j c #68442B",
"k c #69462C",
"l c #6B482B",
"z c #68482C",
"x c #6C482C",
"c c #6D492C",
"v c #6C4A2D",
"b c #6F4C2E",
"n c #714B2F",
"m c #714D2F",
"M c #734E2F",
"N c #744D30",
"B c #764F31",
"V c #784F31",
"C c #745030",
"Z c #765031",
"A c #785131",
"S c #7B5232",
"D c #7B5333",
"F c #7D5433",
"G c #7B5334",
"H c #7C5334",
"J c #7C5434",
"K c #7D5435",
"L c #414141",
"P c #805635",
"I c #825836",
/* pixels */
"zggjkxxm57777777KKHAAAAANNmbxlgg***&****32221***jjkzxxxxxxxzxjjk23122222OOOOXXXXerruppfg22222255eeeeereemmnnxxzx22555557KKPPPPPP",
"ggffgkxm55777777FAAAAAAANNnxjgpi&&&&&&&*********ffjklxxxxxxzjjgg*3*12222OOOOXXoowwwerupp****2224eeeeeeeemmxxxjgg22255557KKKPPIPI",
"ppppgkxm55777777AAAAAAAANmxzgpye%%%%%%&&&*******pfgjjlzxxxkjgfpp****2222OOOOXooowwwweruu&****222wweeeeeemxxzkgfg*2225557GKKPPIPI",
"ppppfhxn55577777AAAAAAAZNmxzgpre%%%%%%%&&&&**&&&ppfgjlzlzzjjgppt*****222OOOXXoo.qqwweerr&*&***22qwweeeeexxxzggfp***24555AGKPPPPI",
"ppuppgzx55577777AAAAAZZZmmxjfpre%%%%%%%&&&*&&&&&uppgjlklkjggpptr&****222OOXXooo.0qqqweer&&&&&**2wwwwweeexxzkgppp***22555AKKKKPPI",
"purpfgkx55577775AZAZAZNZNmxkgpre%%%%%%%&&&*&&&&&ripfggzjjggppirr&&***22*OOXXXoo.000qwwer&&&&&**2qwwwweeexxzhgpiu&&*22457AGKKPPPP",
"pptppfkx55575775AZZZZNNmNmnzgpye%%%%%%%&&&&&&&&&rypfgjjjjgfpirre&&&***2*XXXXXo..000qqwee&&%&&**2qwwweeeexxjggpir&&**2555AAAKKKPP",
"pppppfkx55555777AAAZZNNmNmxzjgpr&%%%%%&&****&&&&rrppgggjjgfpuree&&&&**2*OXXXoo..0000wwwe&%%&&&**qwwwwweexzzjfpyr&&*22555AAAFKKKP",
"**&&**22++######yrrrreeeeeewwq0777777777****&&&&XXXXXOXOggpprree&&&*****XXXoo...*-**4556%%%&&&**222424455222****XXOOO++#AAFFKKKP",
"*&&&**22++##+#++rrrreeeeeeewwq0007777707****&&&&XXXXOXXOffpprree&&&&****XXXoo...*&**2455%%%%&&**222244444422****XOOO++++AAAFKKKK",
"***&**24+#++++++rrrrreeereewwwq007777777*****&&&XXXXXXXXgfpurewe&&&****2XXXoo...-&**2455%%%%&&&***22225454222***OOOOO++$AAAAKKKK",
"******24O+++++++rrrreeeeeeewwwq077777700****&&&&XXXXXXXXppprreww%%&&&***XXXoo...=-**2455%%%%%&&**222225545422222OOOO++$$AAAHAKKK",
"**&*&*22++++++++rrrrreeeeeewwwq007777008*****&&&XXXXXXXXppurreww%&&&****XXXXoo..-*-*2455%%%%%&&**222222524522222OOOOO++$AAAAAKKK",
"**&&**22++++++++rrerreeeeeewwqq07777777q*****&&%XXXXXXXXppureeww%%&&****XXXXoo..--**4455%%%%&&&**222222422222222OOOO++#%AAAHHAKK",
"*&&&**22++++++++rrreeeeeewwwwqq777777770**1**&&%ooXXXXXXpirreeww%%%&****OXXXoo. =--**455%%%%%&&**222222222444422OO++++##AGAAAAKK",
"*&&&**22++++++++eeeeeeeewewwwq0777777070*2***&%%ooooXXXXiryeewww%%&&****OXXXo.. -=&**455%%%%%%&****2222225554552++++++##AAAAAHKK",
"pyrrppgjO+++++++mNNmmnxnxbxkkfpu77777070*2***&&%oooXoXXX7777555557777777OXXXo.. 7700qqqw%%%%%&%&***222222444452454555555tptppppf",
"prrrupgjO+++++++mNmbxnnxxxzkggpu77777008*****&&%ooooXXXX7777555576777770XXXXo.. 77700qww%%%%%%%&***222222545424445555555rptppppp",
"purrupgg++++++++mmmmnxnxxxkgggpr76777007*****&&%ooooooXX7777655667777770XXXXo...77770qqw%%%%%%%&***222222445555555555555ripipppf",
"prrrupggO+++++++mnnnxxxxxxkggptr76777008**22*&&%ooooooXX7777766577777770OXXXo...77770qqq%%%%%%%&***222222455545555555555rrippppf",
"urrrrpfjOO++++++mxmxxxxxxzjgfpre65677007*22**&&%oooooXXX7777766777777770XXXoo...76700qqw%%%%%%%&&***22222444445555555555ryippppf",
"prreypgjOO++++++mmxxxxxxzljgppee55677778*22**&&%oXooooXX7777767777777700XXXXoo..77770qqq%%%%%%%&&***22222244445545555555yyypippp",
"trrryupgOO++++++mmmmxxxxlggpyrew5556777q3****&&&XoooooXX7777777777777700XXXoo...769000qw%%%%%%%%&&**2*222224445554555555rriipipp",
"urrrrpfgOO++++O+xnmxxxxxzgfpreww45557778*****&&&XoooooXX7777777777777000XXXoo...767000qq%%%%%%%%&&&****22222444445555555rrripppp",
"7777770q22444545xxxxxxzk,,,,,:::44557000**2**&&&&%%%%&&&ippuuuty77770000Xoooo...&===-*2445544556&&&&****22242424++++++++ZZAAAAGH",
"7777707q22444555xxzxxxkk,,,,::::*-455770**2**&*&&&%&%&&&uppppipt77770000Xoooo...&&==-*4444444555%%&&&****2224444++++++++ZZAAAAAA",
"7777777q22444544xxxxxzzg,,,:::;:**445770***2***&&&&&&&&*pppppppp77700000XXooo...=&&=-*-444444545%%%%%&&***222455++O+++++ZZZAAGGG",
"7777770022254454xxxzxzzg,,,:::;;=-*45777*2******&&&&%&*&pppppppp0000q000XXooo...&&=&***455545555%%%%%%&&***22245++++++++NZAAGAAH",
"7777777q22445544xxxxxxhg,,,:::;;==*25777********&***&%&*pppppppp07770000XXXo....====**2454565555%%%%%%&&&**22255++++++++NZAAAAAA",
"7767770q24245555xxxxkkjg,,,:::;;&=*25577************&*&*pppppppp77000007XXXo....====**4455666555%%%%%%%%&*122225O+++++++NNAAAAGK",
"7767677022245545xxxxxkha,,:::;;;%=*25577****************pppppppp77000007XXoo... ====-24456665555%%%%%%%%&&**2224++++++++NNZAAAAA",
"7566777022245554xxxxzkkg,,::::;;&=*25577*1**************pppppppp77700000XXXo... =&==-*4556666655%%#%%%%%%&**2225++++++++NNZAAAAA",
"7777777722244555wwwwwwq00764*-&&@@#%%%&**2******pppppppp7777877007770000XXoo....766770qw:,,,,,::4442*445%&***224++++++++NNNAZAAA",
"7767777q22224544wwwwwwqqq7642*--@@%%%&&*********pppppppp7777870077700007XXXo....766670qq:,,,,,::4442*445%&***222OOOOO+++NNZZAAAG",
"7665777q22244542wwwwwwqq077542**@@%%%%&*********ppffpppp7777870077700007XXoo... 776770qw::,,,,::44422444%&&**222OOOO++++NNAZAAAG",
"7755577022244422wwqqqqqq0077552*%%%%%&**********ffppfppp7777777077770007XXoo... 766770qq::,,,:::44422244%%&****2OOOO++++NNZZAAHH",
"7665777022222422wqqqqqq070777544%%%%&&**********pfpppppp7777707777777000XXooo.. 0777700w:,,,,,::44444255%%&&****OOOOO+++mNNZAAAH",
"6656770q22422222qqq0078070707665%%%&&***********fppppppp7777777777777707XXoooo..777770qq:::,::::44424254%&&&*&**XXXOXO++mNZZAAGH",
"6556770q22222222q070707770077777&&%&************fppppppp7777777777777777XXXoo.. 777770qq::::::::44424455%%&&&&&&XXXXXOO+xmZAAAAA",
"655577782222222*0777777777000777&&*&************fppppppp7777777777777770XXooo...777700qq::::::::44445545%%%&&&%%oooXXXOOxmmZAAAA",
"&%%%&&**2222222*preeeeer&&**********************OXXXXXXXpppirrre%%%&&&&&&&&%%%%@077700qqoooooooo44445455%%%%%%%%qwweerpjxnmZAAAA",
"&%%%&&**222222**reewwwwe&&*****&******&*********OXXXXXXXppuyyeee%%%&&&&&&&&%%%#%777700qqoooooooo55555555%%%%%%%%000qwrpglxmZZAAA",
"%%%&&&**222222**rewqqqwe&&*************&********XXXXOXXXpppireee%%%%&&&&&&&%%%#%077000wwooooXoXo55666554%%%%%%#@7770qergkxmmZAAA",
"%%%&&&**222222**ewwq0qqw&&&********&**&&%&*&&&**XXXXXXXXppirreew%%%%%&&&&&&%%%%%00000qqwoooXXXXX77766655%%%%%%@@6660qwypjxmmNAAA",
"&%%&&&**22222**&ewqq00qw%&*******&**&&&&%%&&&&**XXXXXXXXpyrreeww%%%%%%&&&&&%%%##0000qqwwXXXXXoXX77766655%%%%%@@@55577qriglmmmZAA",
"%%%%&&**22222**&ewq000qw%&&******&*&&&&%%%%&&&&*XOXXXXXXpprreeww%%%%%%&&&&&%%%##000qqqwwXXXXXXXX77777765%%%%%O@@54560qeygknmNZAA",
"%%%&&&**22222**&ewq0000q%&&******&*&%%%%%%%%%&&&XXXXXXXXpyrreeww%%%%%%%&&&%%%%%%000qqwweXXXXXXXX77777765%%%%%@O@44457qergjxnNZAA",
"%&%%&&**22222**&ewq000qq%&&**&**&&&%&%%%%%%%%%&&XXXXXXXXpuurewwq%%%%%%%&&&%%%%%%00qqwweeXXXXXXXX77777766%%%##@O@444570weigxnmNZA",
"eweeerpgqqwwwq77wwq070qq56700077&&%%%%%%..ooooooXXXXXXXX77776554%%%%%%%&XXooo...qqqqwwee7777787777777775%%%##@OX444470we7qwwerri",
"eeeerrpgqwwwwq77ewq0000q56700077&&%%%%##....ooooXXXXXXXX77776544%%%%%%%%ooooo...qqqqwwer7777q77707777775%%%%%O@@444460qe00wwerry",
"eeeeerpgqwwwwq77ewq0000q56707777%%%%%###  ...oooXXXXXXXX77775544%%%%%%%%ooooo...qqqqweer7077078788777777%%%%%@O@444450qw70qweerr",
"eeeerupgqwwwwq77ewq0000q47777776%%%%####  ....ooXXXXXXXX77775544%%%%%%%%oXooo...qqqweeeu70778778q7777777%%%%@OO@4425500w770wweer",
"eweeeypgqwwwwq77ewq7000045777776%%%%#%@@   ...ooXXXXXXXX75565444%%%%%%%&Xoooo...qqqweeeu0770887777777776%%%#%@@@4444570w570qwerr",
"eeeerppgqwwwwq77ewq0000045777766%%%%%#@@   ...ooXXXXXXXo66555444%%%%%%%%Xoooo...qqqweerr7777qq7788777777%%%%@O@X4-24570q570qqwer",
"ewewrppgqwewwq77ewq0000q45677666%%%##@@@   ...oooXXXoooo45554444%%%%%%%%XXooo.ooqqqweery777788788q707777%%%%@@@@4424570q577qqwer",
"wweeeppgwwwwwqq7rwq0000q45676665%%%%#@@@   ...ooXXXooooo44244444#%%%%%%&Xoooo...qqwweery770778788qq07777%%%%#@@X4424570q577qqwer",
"eweerupgOOO+OOOO752*****25567775%%%%%@@@    ...ooooooo..q0qqqqqq%#%%%%%%ooooo...4444657770000778******&&%%%%#O@@4444560q5770wwer",
"weeerupgOOOOOOOO7542*****4557776%%%%#@@@   ....ooooo....000qqqqq#%%%%%%%ooooo...2445667777777777*****&*&&%%%#@@@4444570q5777qwer",
"weeerppgOOO+OOOO754*****24557766%%%%%@@@   ....oooooo...0000qqqq#%%%%%%&XXooo...2245567777777777*******&&%%%#@@@4444600q5577qwer",
"eweerppgOOOOOOOO764*****24556665%%%%%@@@   ...ooooo.....00070q0q#%%%%%%%Xoooo..o2445456677777707******&&&%%%#@@@5655670q5777qwee",
"eeeerupgOOO++OOO0754*****4455666%%%#%#@@   .....ooo.....7777000q%#%%%%%%XXooo.o.4444455677777777******&&&%%%%@@@656667qw5770qwee",
"weeerppgOOO++OOO0754*****4555666%%%%%#@@.  ...........  577700qq%#%%%%%%Xoooo...4*44445557777777********&%%%%#@@776770qw5770qwwr",
"eeeerupgOO+++OOO0754-****4455665%%%%%%%#    .........   6570000q%#%%%%%%Xoooo...*-44445566777777******&&&%%%%#@@777770qw5777qwwr",
"eeeerpfgOO+OOOOO07544****4465665%%%%%%##    .........   6677000q%#%%%%%%Xoooo...44-*444456777777*******&&%%%%#@@77770qqw5770qwwe",
"6667777qO+O++OOO07754***2*455666%%%%%%%##@@#@@%#....    5677000q%#%%%%%%Xoooo...q0qqqqqq%%%%&&&********&XXoo....&&****45%%&*2255",
"5666770qOOO+++OOq7754-***4466666%%%%%%%%######%% .      557700qq%%%%%%%%oooooo.o00q0q00q%%%%%&&&*******&XXoo... *****445%&&**255",
"5667777qOOOO+++Oq077444*24465556%%%%%%%%%%#%%%%#...     667700qq#%%%%%%%oXooooo.qq000000#%#%%%&&********XXooo...--**-445&&&*2245",
"5577778qOOOO++OOq077544244455666%%%%%%%%%%%%%%%%...     56700qqq%%%%%%%%ooooooooqq000000@###%%%&********XXoo....*=**2445&&**2255",
"5777778qOOOO++OOq077654444566667%%%%%%%%%%%%%%%%....    67700qqq%%#%%%%%oooooo.oq0q00077@@@##%%&********XXooo...**-*4456&&*22455",
"5767778qOOOO+OOOqq07765544557766&%%%&%%%&&%%%%%%....    55700qqw%%%%%%%%oXoooo.oqqqq0776@@@@#%%&&*******XXooo...****4457&&*22555",
"5677778qOO++++OOqqq7775555657677&%&&&&&&&&&&%%%%. .     6770qqww%%%%%%%%oXooooooqqq00776@@@@#%%%&***2***XXXoo...****4456&**24557",
"657777qqO++###OOwqq0077565767677&&&&&&&&&&&&&%%%...     5770qqww%%%%%%%%ooooooo.qqq00775@@@@#%%&&****2**XXooo...****4457&*225557",
"667777qqOO+O+OOOzjggfyrr%%&&&&&&&&&&&&**77777754#@@@@@@@5770qqww44244455%%&%%%%%wqqq0775@@O@#%%&&**2222*XXooo...070qqwee7qwwerrt",
"6677778qOO+++++Ozljgfpuy&%&&&*&&&&&*&***77777764#@@@@@@@5770qqww44444455%%%%%%%%wwqq0076@@O@##%&&****2**XXooo...0000qwer0qwwerrt",
"7777778qO++++++Oxkjggpuu&&&&&&&&&&******8q077665%%@@@@@@6770qqww44444455%%%&&&%%ewww0077@@@@#%%%&***222*XXooo...707qwwerqqweerti",
"6767778qOOO+++++xxjjjgpp&&&&&&***&******70777765%%@@@@@@6700wwww44444455%%&&&&&&eewqq000@@@@#%%%&&**222*XXXoo...070qqwer0qweeryi",
"776770qqOO++++++xlxjkgfp*&&&&&&&****2*22qq777775%%@@@@@@677qqwww44444455%&&&&&&&reewwq00@@@##%%%&&****2*XXXXoo..0700qwey0qwerrii",
"776770qqOO+++++Oxxzkkkgf*&&*&&&&&***2***00777775%%@@@@@@770qwwwe44444455%&&&&&&&reeewq00@@@##%%%%&&*****XXXXoo..0070wwer0qwerrip",
"677777qqOO++++++xxxkkkgp*&&&&%&&&*******87877775%%#@@@@@770qwwee54444455&&&&&&*&yreeeqq0@@@%##%%%&&&&***OOXXooo.0000qwer7qwerrip",
"777770qqOO+++++Oxxxzkzgg*&&&%%%&*&******77777775%%@@@@@@77qqwwee55444456%%&&&***iyyeewqq%#@%%#%%%%%&&***OOXXooo.0000qwer0qwertip",
"77777qqq24245542xxxxzjjfpreewwee77770q00*&&&&&%%o.....  **44465555454455%%&&*&**XXXoXoooq0070007%%%%&&**gppirewq,,,,<<<L*2255577",
"77777qqw24455555xxxxzkgfprewwwww67770007*&&&&&%%ooo.....**44555655544555%&&&*&**XXXXXoooqq007777##%%%&**ggpirewq,,,,<<<L*2255577",
"77777qqw24545445xxxxkljpuewwqwqw67770007&&&&&%%%o.......2444567765555457%&&*****XXXXXXXowqq07077@@#%%%**pgpirewq,,,,<<<<*2455577",
"77770qqw22555545xxxxzlgprewwqqqw66770077&&%%%%%%oo......2244667756656667&&&*****OXXXXXoXwwq00756@@#%%%&*pfpprewq<,,,,<<<*2255577",
"77770qqw24554445mmxxzlffyewqqqqw57777777&&&%%%%%.oo.....2245577777766677&*&*****OOXXXXXXewq07764@@@#%%&*pgpfiewq,,,,,<<<&*255577",
"77777qww55555455mxxxzjgprewq0qqw55777077&&%%%%%%oooo....2455577777777767&*******OOOOOXXXeww00654X@@#%%&*fggpueeq<,,,,,<<&*255777",
"77777qqw44555555mxmxxkggyewqqqqq56777077&%&%%%%&oooo....4445777777777777&&******OOOOXXXXreq00654XX@#%%&*pggpprew<,,,,,<<%*255577",
"77770qqw55555545mmxxzkjguewq00qq57777077&%%%%%%%ooo.....4555777777777777*&*&****OOOOOOXXrewq7644XX@@#%&*fgjgpure<<<,,<<<&*455577",
"7770qwww455555555554422*uewqqqqq56777077&%%%%%%%%%%%%%%%55577777,,,,,,,,777700qqXXOOOOXXuewq7654@X@@#%&*gjgggpre%%%###%%XXOO#%%%",
"7770qwwe445555555554222*rewq00qq56777707&%%%%%%%%%%%%%%%56577777,,,,,,,,7777q0qqOXOOOOOXuewq7655XX@@%%&*gjjjgpir%%%%%%%&XOO+#%%%",
"7770qwww555555555554422*uewqqqqw56777077&%%%%%&&%%%%%%%%55777700,,,,,,,,7777700qOXXOOOOOuewq0744XX@@%%&*gkjjjgpi&&&%%%&*XOO#%%%%",
"7770qwwe555555555554422*pewqqqqw66777707&%%&&%&&%%%%%%%%67777700,,,,,,,,7777770qOOOOOOOOprwq0754X@@#%%&*gkzkkhfp*&&&&&**OO##%%%%",
"7777qwee555555555444422*prwqqqqq57777007&%%&&%&&&&%%%%%%67777q7q,,,,,:::5777780qOOOOOOOXueew0754XX@##%&*gkxxzzgk*******2O+#%%%%%",
"7777qwee555555555544222*urwwqqqq57777700&&&%%%&&%&%%%%%%777770qq,,,,,:::557777q0OOOOOOOXurwq0654X@@##%&*gzxxxxzk22222245++$%%%%%",
"7777qwwe555555555544522*prwwqqqq57777007&%&&%&&&&&&%%%%%7777qqq8,,,,,,::557777q0OOOOOOOXpreq0754XX@#%%**gxxxxxxz44244455++$%%%%%",
"777qqwee555555555554422*prwwqqqw67770007&&&&&&&&&&%%&%&&777qqqqq,,,,,,,:777777qqOOOOOOXOpueq0754XX@#%%&*gzxxnmmm55555555+$$%%%%%",
"&***2455++++++++5544522*prewqqww67000007&&&&&&&&XXXXoooXuppggggg***&&%%&%%&****2222222**07542-&%X@@#%%&*kzxxnmmmNmNNNNNZZAAKKKKP",
"&**22545#++++###55545522prewwqww67780000&&&&&&&&XXXXooXXppfggjgg****&&&&&&***2*12222*22*0774*=&%@@@#%%&*jxxnmmmmmNNNNZZZAAAKKKKP",
"&&*22555########55555522pyewqwww677qqq00&&&&&&**XXXXXooXpfggjjjg*2*****&&******2222*22**0755*-&%OX@#%&**kxxmmmmNNZZZZAAAAAFKKKPP",
"&***2555########55555422guewwwwe777q0q00&&&&&&&*XXXXXoXXpggjjjjg2***********2*****22222*07742=&%XO@#%%**kxmmmmmNZZZZZAAAAFFKKKPP",
"*&*22555########55555522fpyewwee700qqqq0&&&&&&**XOOXXXXXggggjzjj2**2********22********2207752-&%XX@%%&&*lxmmmmmNNNZZAAAAAHFKPPPP",
"&**22555########55555542gpprreey00qqqq87&&&&&**&OOXOXXXXggghjzzj222*223**2**22*******22207752*&%XX@%%&*2zxxmmmNNNNNNAAAAAAHPKPPI",
"&**22555########55555552kgppryru0qqqqq00&&&&&***OOOOXXOOghjkkzzj22222222222222********2207752*&%OO@%%&**kxmNmNmNNNNNAAAAAKKPKPPI",
"&**25555########55555554zhpppppfqqqwwqq0*&&*****OOOOOOOOjkjzzzzk222222222222*********2*207752*&&OO@%%&**zxmmmmNNNNNNZAAAAGKKKPPP",
"***24555iiiiiitr55555554wwqqqqqq->>>>---*&&&&***2*222222jkkjzzzjjkkkkkzk22222***XXoXOOOO0775**-&OO@#%&*2OO++++++erryryiiiiffffjj",
"&*225557iiiiitti57555555ewwwwqww>>>>>---**&*****22222222xzxxzllzjjzkkljl2222****XooXXOOO00752*=&@@@#%&*2OO++++++eerreyiiiiifgggj",
"**245555iiiiiitr77555555eewwwwww99>>>---******1222445442xxzxzzljljjkjjlk2222***&oooXXOOO07752*-&@@@%%&*2O+++++++eeeeerryiipifggj",
"**245555iiiiiiti77555555reewewww49>>>---******2222544442xzxxzkjjgjgjkjjz2222***&XoooXXOO00764*-&@@@%%&*2O+#+++++weeeeerrrrifffgg",
"**225557iiiiiiii77555555reeeewew94>99---*****12224555544xxxzxkjgjggghkjz2222**&&XXooXOXOq7774**=@@@#%&*2O+++++O+wwweeeerrriifggj",
"**255555ipipiiii77755555rreeeeww99994-->***3112224555544xxxxkgggggfgkkkz2222**&&XoooXXOOq7764**-@@@#%&*2+++++++Owwwweweerryiiggj",
"*2255577ipppiiii77755555rreeeeww99->>---2***222244445554xxxxzjgggfgghhkk2222***&XXXXXOOOq0764*&&@@#%%&*2O++++OOOwwqwwwweeeripggj",
"*2255777ippppiii77775555rreeewww>>>9>---2222224444555455xxxxjgggpppffhkk22222**&XXXXXOOOqq7642*&@@#%%**2O++++OOO8qq8wwwwerrippgj",
"qwweriif78777755++##+#++ZNNNxxzzkkzxkzxl22222445#####+++544222**ppppgfkk24222**&XXXXOOOOq07742&&@@#%%&*2+++++OOOkjjjjjzxwerrifgj",
"qqweriii77777757+$##++++ZNNnnzzlkkkkxxxx22545455##++#+++55522***pppppgkk44222***XXXXXOOOq07754*&@@#%%&*2+++++OOOjgjlgjkkeerrifgj",
"qqweriip77777777$$+#%%++AZNmxzkjjjkzxxxx44555555#+++++++5522****pupppgkk44222**&XXXXOOOOwq7744**@##%%&*4++++++OOjjjjgkkxeeryifgj",
"qqweipff77777777$++#%##$ANNmxxjgjjkkxnnm45555555##++#+++55422***ppppghkz22222***XXXXOOOOwq7754**@##%%&22++++++OOjgggggkkweryifjj",
"qwwrypff88777777%%#%%%$%AZNmxzjgjjkxxnmm55555555######++554222**upppgkzz22222***XXXXOOO+qq77542*##%%&*22+++#+++Ojggggggkwerrfgjj",
"qweripff88877777%%%%%%$$ZZNmnkjjgkzxxNmN55555555#######+555222**pppggkzx22222***XXXXOO++wq07642*##%%&*24+++##++Ojggggggjwerifgjx",
"wwerypff88888777%%$%$$%$AZNmnxjjgkzxmNNN55555555#####+#+555422**pppggzkx4422****OXXOOOO+wqq75542%%%%&*24++#+#++Ojggggggzwertffjx",
"qwerppff88888788%%$$$$$$AANNxzkkkzzxmmNZ55755555######++5545222*pppggkzx44222***XOOOO+++wwq77642%%%%&*25++###++Ojjgggggkeerifjjx",
"qweriffggggggggg$$$$$$$%AANNbxzkwwwwerrrytiiiyyy75555555mNNnzjgg000qqwew54422*****222224xkgpreww555678we55775552kjggffgk++#%%%%&",
"qwerigggjggggjgg$$$$%$$$AAANmxzkqwweeryriiiiiiiy75555575NNNxzkgg00qqqwwe45422****2222225xkgfreew55677qwe57757554xjjgfggk++#%%%%%",
"wwerifgjjjjggggg%%$$$$$#AAANmnzxwwweerriiiiiiiii77555557NNNnxkkgqq0qwwee55442*****224545xxjgyree56777wwe57777755xkjggfgk++%%%%%&",
"wweyiggjjjjjjjjg%$$%#%%$KAANNnzzwwweeryiiiiiiiii75755555NNNNxzjgqqqqwwee55522*****222554xxlppyre7670qwwr77777755xzlgffgkO++%%%%&",
"weeyifgjjjjjjjgg%%%%%%%%FAANNmxzwwweeryiipiiiiii77555577NNZmxxkgqqqqwwee555222***2245555mxzgpprr7777qwer57777755xzjgffgkO++%%%&&",
"werifggjjjjjjjjg%%%%%%%%KKAVNnxzwwweerriiiiiiiii77577777ANZNxxzkqqqqwwer55542*2222245555mxxjfpur7770qwer77777755nzjjffgjO+$%%%&&",
"werifgjjjjjjjjjj%%%%%%%%KKAANmxxwwweerripfiffiip77757777AZNNxxkkqqqwweer5554222222225555NNzzgppy770qqeer77778755nxjggfgkO+$%%%%&",
"werifgjjjjjjjjjl%%%%&%%%PKGANNmxwweeeyiipfgffffp77777777AANmmxzzqqqweeer5545222222455555NNxzgppp700qqerr57777775mxjggggjO+$%%%&&"
};
