/* XPM */
static char *e5702b4022a74713ce419348640ed3df7I7SB2Lihr12irYV[] = {
/* columns rows colors chars-per-pixel */
"128 128 44 1 ",
"  c gray17",
". c #2D2D2D",
"X c gray19",
"o c gray21",
"O c #393939",
"+ c gray24",
"@ c #434343",
"# c gray28",
"$ c #494949",
"% c gray30",
"& c #515151",
"* c gray33",
"= c #5B5B5B",
"- c #5D5D5D",
"; c gray38",
": c #676767",
"> c gray42",
", c gray43",
"< c gray45",
"1 c #747474",
"2 c #797979",
"3 c gray50",
"4 c gray51",
"5 c #848484",
"6 c #888888",
"7 c #8D8D8D",
"8 c #909090",
"9 c #979797",
"0 c #989898",
"q c #9F9F9F",
"w c #A0A0A0",
"e c #A5A5A5",
"r c #A9A9A9",
"t c #ACACAC",
"y c #B1B1B1",
"u c #B6B6B6",
"i c #B9B9B9",
"p c gray75",
"a c #C1C1C1",
"s c gray78",
"d c #CACACA",
"f c gray80",
"g c gray82",
"h c gray83",
/* pixels */
"fffffdddaaaaaaaaddddddddssssssssiiiiiiiissssssssaaaaaaaappppppppppppppppppppppppppppppppssssssssiiiiiiiiiiiiiiiiiuyyrw97&*=-;;;;",
"fffffdddaaaaaaaaddddddddssssssssiiiiiiiissssssssaaaaaaaappppppppppppppppppppppppppppppppssssaasauuuuuuuuiiiiiiiiiuytw975#$*=-;;;",
"ffffdsssppppaappssssssssaaaaaassuuuuiiuuaaaaaaaappppppppiiiiiiiiiiiiiiiiiiiiiippiiiiiiiiaaaaaaaauuuuuuuuuuuuuuuuuyyr0753+@$*-;;;",
"ffffsaaaiiiiiiiiaaaaaaaappppppppyyyyyyyyppppppppiiiiiiiiuuuuuuuuuuuuuuuuuuuuuuuuuuuuuuuuppppiiiittttttttyyyyyyyytttw742<OO@&=;;;",
"ffdsuttteeeeeeeettttttttrrrrrrrrqqqqqqqqrrrrrrrreeeeeeeewwwwwwwwwwwwwwwwwwwwwwwwwwwwwwwwrrrreeee00000000qqqqqqqq000731<,Xo+%=;;;",
"ddsatwqq00000000wwwwwwwwqqqq00qq88888888qqqqqqqq99999999888899999999999999998899888899990000000077777777888777777774<,>>.X+%*;;;",
"ddsatqqq00000000wwwwwwwwqqqq000q88888888qq00qqqq99999999898999999988999999998889898999990000000077777777777777777774,>>>.X+%*;;;",
"ddsatqqq00000000wwwwwwwwqqqq000088888888qq0000qq99999999998999999998889999998889998999990000000077777777777777777774,:::.X+%*;;;",
"ssaprqqq66666666666666666666666622222222666666666666666666666666<<<<<<<<3333333333333333222222223333333333333333222,=*&&.X+%=;;;",
"ssaprqqq66666666666666666666666622222222666666666666666666666666<<<<<<<<3333333343333333222222223333333333333333222,=&&&.X+%=;;;",
"ssaprq0066666666666666666666666622222222666666666666666666666666<<<<<<<<3333333333333333222222223333333333333333323,=*&&.X+%=;;;",
"ssaprq0066666666666666666666666622222222666666666666666666666666<<<<<<<<3333333333333333222222223333333333333333333,=*&&.X+%=;;;",
"ssaprqq066666666666666666666666622222222666666666666666666666666<<<<<<<<3333333333333333222222223333333333333333222,=*&&.X+%=;;;",
"ssaprqq066666666666666666666666622222222666666666666666666666666<<<<<<<<3333333333333333222222223333333333333333222,=*&&.X+%=;;;",
"ssaprqqq66666666666666666666666622222222666666666666666666666666<<<<<<<<3333333333333333222222223333333333333333222,=*&&.X+%=;;;",
"ssaprqqq66666666666666666666666622222222666666666666666666666666<<<<<<<<3333333333333333222222223333333333333333222,=*&&.X+%=;;;",
"iiuyq888222222222222222222222222666666662222222233333333333333333333333366666666333333333333333333333333<<<<<<<<>>>-$#@@ .O$*---",
"iiuyq888222222222222222222222222666666662222222233333333333333333333333366666666333333333333333333333333<<<<<<<<>>>-$#@@ .O$*---",
"iiuyq888222222222222222222222222666666662222222233333333333333333333333366666666333333333333333333333333<<<<<<<<>>>-$#@@ .O$*---",
"iiuyq888222222222222222222222222666666662222222233333333333333333333333366666666333333333333333333333333<<<<<<<<>>>-$#@@ .O$*---",
"iiuyq888222222222222222222222222666666662222222233333333333333333333333366666666333333333333333333333333<<<<<<<<>>>-$@@+ .O$*---",
"iiuyq888222222222222222222222222666666662222222233333333333333333333333366666666333333333333333333333333<<<<<<<<>>>-$@@+ .O$*---",
"iiuyq888222222222222222222222222666666662222222233333333333333333333333366666666333333333333333333333333<<<<<<<<>>>-$#@+ .O$*---",
"iiuyq888222222222222222222222222666666662222222233333333333333333333333366666666333333333333333333333333<<<<<<<<>>>-$#@@ .O$*---",
"aapie999<<<<<<<<333333336666666633333333333333332222222222222222222222222222222222222222333333333333333366666666,,,;%##@..O$*---",
"aapie999<<<<<<<<333333336666666633333333333333332222222222222222222222222222222222222222333333333333333366666666,,,;%#@@..O$*---",
"aapie999<<<<<<<<333333336666666633333333333333332222222222222222222222222222222222222222333333333333333366666666,,,;%##@..O$*--;",
"aapie999<<<<<<<<333333336666666633333333333333332222222222222222222222222222222222222222333333333333333366666666,,,;%##@..O$*--;",
"aapie999<<<<<<<<333333336666666633333333333333332222222222222222222222222222222222222222333333333333333366666666,,,;%##@..O$*-;;",
"aapie999<<<<<<<<333333336666666633333333333333332222222222222222222222222222222222222222333333333333333366666666,,,;%##@.XO$*-;;",
"aapie999<<<<<<<<333333336666666633333333333333332222222222222222222222222222222222222222333333333333333366666666,,,;%##@.X+$*-;;",
"aapie999<<<<<<<<333333336666666633333333333333332222222222222222222222222222222222222222333333333333333366666666,,,;%##@.XO$*-;;",
"ppiuw99922222222222222222222222222222222222222226666666666666666666666666666666666666666<<<<<<<<3333333366666666111:&%$$ .O$*---",
"ppiuw99922222222222222222222222222222222222222226666666666666666666666666666666666666666<<<<<<<<3333333366666666111:&%$$ .O$*---",
"ppiuw98922222222222222222222222222222222222222226666666666666666666666666666666666666666<<<<<<<<3333333366666666111:&%$$ .O$*---",
"ppiuw98822222222222222222222222222222222222222226666666666666666666666666666666666666666<<<<<<<<3333333366666666111:&%$$ .O$*---",
"ppiuw99822222222222222222222222222222222222222226666666666666666666666666666666666666666<<<<<<<<3333333366666666111:&%$$ .O$*---",
"ppiuw99822222222222222222222222222222222222222226666666666666666666666666666666666666666<<<<<<<<3333333366666666111:&%$$ .O$*---",
"ppiuw99922222222222222222222222222222222222222226666666666666666666666666666666666666666<<<<<<<<3333333366666666111:&%$$ .O$*---",
"ppiuw99922222222222222222222222222222222222222226666666666666666666666666666666666666666<<<<<<<<3333333366666666111:&%$$ .O$*---",
"ppiuw88822222222222222222222222233333333<<<<<<<<33333333333333332222222222222222<<<<<<<<333333332222222222222222>>>-$@@+.X+%=;;;",
"ppiuw88822222222222222222222222233333333<<<<<<<<33333333333333332222222222222222<<<<<<<<333333332222222222222222>>>-$@@+.X+%=;;;",
"ppiuw88822222222222222222222222233333333<<<<<<<<33333333333333332222222222222222<<<<<<<<333333332222222222222222>>>-$@@+.X+%=;;;",
"ppiuw88822222222222222222222222233333333<<<<<<<<33333333333333332222222222222222<<<<<<<<333333332222222222222222>>>-$@@+.X+%=;;;",
"ppiuw99922222222222222222222222233333333<<<<<<<<33333333333333332222222222222222<<<<<<<<333333332222222222222222>>>-$@@+.X+%=;;;",
"ppiyw99922222222222222222222222233333333<<<<<<<<33333333333333332222222222222222<<<<<<<<333333332222222222222222>>>-$@@+.X+%=;;;",
"ppiyw89922222222222222222222222233333333<<<<<<<<33333333333333332222222222222222<<<<<<<<333333332222222222222222>>>-$@@+.X+%=;;;",
"ppiuw88822222222222222222222222233333333<<<<<<<<33333333333333332222222222222222<<<<<<<<333333332222222222222222>>>-$@@+.X+%=;;;",
"uuut0777<<<<<<<<2222222211111111,,,,,,,,,,,,,,,,,,,,,,,,,,,,,,,,1111111111111111<<,,<<<<::::::::,,,,,,,,11111111<<<:&$$#.X+%=;;;",
"yyyt0777<<<<<<<<2222222211111111,,,,,,,,,,,,,,,,,,,,,,,,,,,,,,,,1111111111111111<,,,<<<<::::::::,,,,,,,,11111111<<<:&$$#.X+%=;;;",
"yytr0777<<<<<<<<2222222211111111,,,,,,,,,,,,,,,,,,,,,,,,,,,,,,,,1111111111111111<<,,<<<<::::::::,,,,,,>,1<<11111<<<:&$$#.X+%=;;;",
"treq7444::::::::>>>>>>>>::::::::;;;;;;;;;;;;;;;;;;;;;;;;;;;;;;;;::::::::::::::::;;;;;;;;==****==--------:::::::::::=%$##.X+%=;;;",
"rw072,,,&&&&&&&&********&&&&&&*&%%%%%%%%%%%%%%%%%%%%%%%%%%%%%%%%&&&&&&&&&&&&&&*&%%%%%%%%#@@@####$$$$$$$$&&&&&&&&&&&%@@@@.X+%=;;;",
"q974<>>:$$$$$$$$&&&&&&&&%%%%%%%%################################%%%%%%%%%%%%%%%%$$$$$$$$++++++++########%%%%%%%%$$$#@@@@.X+%=;;;",
"9752,>:;$$$$$$##%%%%%%%%$$$$$$$$#########################@######$$$$$$$$$$$$$$$$########OOOOOO++@@@@@@@@$$$$$$$$$$$#@@##.X+%=;;-",
"752<>>:;########%%%%%%%%$$$$$$$$@@@@@@@@@@@@@@@@@@@@@@@@@@@@@@@@$$$$$$$$$$$$$$$$########OOOOOOOO@@@@@@@@$$$$$$$$####@@##.X@&=;;-",
"%@Oo...                                                                         ........XXXXXXXX...................... ..o@%*--=",
"&#+oX...........................................................        ........XXXXXXXXXXXXXXXXXXXXXXXXXXXXXXXXXXXX...Xo+$&=--=",
"=&#++OOOOOOOOOOOOOOOOOOOOOOOOOOOOOOOOOOOOOOOOOOOOOOOOOOOOOOOOOOOooooooooOOOOOOOO++++++++++++++++++++++++++++++++++OOOO++@$&*----",
"-*&%%$$$$$$$$$$$$$$$$$$$$$$$$$$$$$$$$$$$$$$$$$$$$$$$$$$$$$$$$$$$########$$$$$$$$%%%%%%%%%%%%%%%%%%%%%%%%%%%%%%%%$$$$$$$%%&*-----",
"--==************************************************************&&&&&&&&********================*************************=------",
"----------------------------------------------------------------========--------;;;;;;;;;;;;;;;;;;;;;;;;;;;;;;;;----------------",
"----------------------------------------------------------------========--------;;;;;;;;;;;;;;;;;;;;;;;;;;;;;;;;;-;;------------",
"------------------------------------------------------====------========--------;;;;;;;;;;;;;;;;;;;;;;;;;;;;;;;;;;;;;;----------",
"ppppppppaaaaaaaaaaaaaaaaaaaaaaaassssssssssssssssppiuyeq9&*=-----gghhgfffdddddddsssssssssiiiiiiiiaaaaaaaassssssssiiiiiiiissssssss",
"ppppppppaaaaaaaaaaaaaaaaaaaaaaaassssssssssssssssppiurq97#$&=----gghhgfffssssssssssssssssuuuuuuuuaaaaaaaassssssssiiiiiiiissssssss",
"iiiiiiiippppppppppppppppppppppppaaaaaaaaaaaaaasspiuyw975+@$*----ghhhfdddasaasasaaaaaaaaayuuuuuuuppppppaaaaaaaassuuuuiiuuaaaaaaaa",
"uuuuuuuuiiiiiiiiiiiiiiiiiiiiiiiippppppppppppppppuuur9642oO@&=---hhhhdsssppppppppppppppipttttttttiiiiiiiippppppppyyyyyyyypppppppp",
"wwwwwwwweeeeeeeeeeeeeeeeeeeeeeeerrrrrrrrrrrrrrrrwww95321XX+%*---ggfdpyyyrrrrrrrreerrrrrr00000000eeeeeeeerrrrrrrrqqqqqqqqrrrrrrrr",
"88889999999999999999999999999999qqqqqqqqqqqq00qq999621<<.X+%*---ffdsyeeeqqqqqqqq0000qq007777777700000000qqqq00qq88888888qqqqqqqq",
"89899999999999999999999999999999qq00qqqqqqqq000q99961<<<.X+%*---ffdsyeeeqqqqqqqq0000qqq07777777700000000qqqq000q88888888qq00qqqq",
"99899999999999999999999999999999qq0000qqqqqq000099961,,,.X+%*---ffdsyeeeqqqqqqqq0000qq007777777700000000qqqq000088888888qq0000qq",
"222222222222222233333333<<<<<<<<3333333333333333,,,;%##@ .O$*---ppiuw88966666666333333333333333322222222222222222222222222222222",
"222222222222222233333333<<<<<<<<3333333333333333,,,;%##@ .O$*---ppiuw89966666666333333333333333322222222222222222222222222222222",
"222222222222222233333333<<<<<<<<3333333333333333,,,;%### .O$*---ppiuw88866666666333333333333333322222222222222222222222222222222",
"222222222222222233333333<<<<<<<<3333333333333333,,,;%$## .O$*---pppuw89966666666333333333333333322222222222222222222222222222222",
"222222222222222233333333<<<<<<<<3333333333333333,,,;%$## .O$*---ppiuw99966666666333333333333333322222222222222222222222222222222",
"222222222222222233333333<<<<<<<<3333333333333333,,,;%$## .O$*---ppiuw99966666666333333333333333322222222222222222222222222222222",
"222222222222222233333333<<<<<<<<3333333333333333,,,;%$## .O$*---ppiuw99966666666333333333333333322222222222222222222222222222222",
"222222222222222233333333<<<<<<<<3333333333333333,,,;%$## .O$*---ppiuw99966666666333333333333333322222222222222222222222222222222",
"666666666666666622222222<<<<<<<<2222222266666666111>*%%$.X+%*;;;aapie99933333333333333333333333333333333666666662222222222222222",
"666666666666666622222222<<<<<<<<2222222266666666111>*%%$.X+%*;;;aapie99933333333333333333333333333333333666666662222222222222222",
"666666666666666622222222<<<<<<<<2222222266666666111>*%%$.X+%*;;;aapie99933333333333333333333333333333333666666662222222222222222",
"666666666666666622222222<<<<<<<<2222222266666666111>*&%$.X+%*;;;aapie99933333333333333333333333333333333666666662222222222222222",
"666666666666666622222222<<<<<<<<2222222266666666111>*%%$.X+%*;;;aapie99933333333333333333333333333333333666666662222222222222222",
"666666666666666622222222<<<<<<<<2222222266666666111>*%%$.X+%*;;;aapie99933333333333333333333333333333333666666662222222222222222",
"666666666666666622222222<<<<<<<<2222222266666666111>*%%$.X+%=;;;aapie99933333333333333333333333333333333666666662222222222222222",
"666666666666666622222222<<<<<<<<2222222266666666111>*%%$.X+%=;;;aapie99933333333333333333333333333333333666666662222222222222222",
"333333333333333333333333666666666666666633333333,,,;%##@.X+%*--;ssaprqqq66666666<<<<<<<<<<<<<<<<33333333333333333333333322222222",
"333333333333333333333333666666666666666633333333,,,;%##@..+%*---ssaprqqq66666666<<<<<<<<<<<<<<<<33333333333333333333333322222222",
"333333333333333333333333666666666666666633333333,,,;%##@..O$*---ssaprqqq66666666<<<<<<<<<<<<<<<<33333333333333333333333322222222",
"333333333333333333333333666666666666666633333333,,,;%##@..O$*---ssaprqqq66666666<<<<<<<<<<<<<<<<33333333333333333333333322222222",
"333333333333333333333333666666666666666633333333,,,;%##@..O$*---ssapr00066666666<<<<<<<<<<<<<<<<33333333333333333333333322222222",
"333333333333333333333333666666666666666633333333,,,;%##@.XO$*---ssapr00066666666<<<<<<<<<<<<<<<<33333333333333333333333322222222",
"333333333333333333333333666666666666666633333333,,,;%##@.X+%*---sssprq0066666666<<<<<<<<<<<<<<<<33333333333333333333333322222222",
"333333333333333333333333666666666666666633333333,,,;%##@.X+%*---sssprqq066666666<<<<<<<<<<<<<<<<33333333333333333333333322222222",
"222222222222222222222222666666666666666622222222>>>=#@++ .O$*---ppiuw88922222222333333333333333322222222222222222222222222222222",
"222222222222222222222222666666666666666622222222>>>=#@++ .O$*---ppiuw89922222222333333333333333322222222222222222222222222222222",
"222222222222222222222222666666666666666622222222>>>=#@++ .O$*---ppiuw88822222222333333333333333322222222222222222222222222222222",
"222222222222222222222222666666666666666622222222>>>=#@++ .O$*---ppiuw89922222222333333333333333322222222222222222222222222222222",
"222222222222222222222222666666666666666622222222>>>-$@++ .O$*---ppiuw99922222222333333333333333322222222222222222222222222222222",
"222222222222222222222222666666666666666622222222>>>-$@++ .O$*---ppiuw99922222222333333333333333322222222222222222222222222222222",
"222222222222222222222222666666666666666622222222>>>-$@++ .O$*---ppiuw99922222222333333333333333322222222222222222222222222222222",
"222222222222222222222222666666666666666622222222>>>-$@++ .O$*---ppiuw99922222222333333333333333322222222222222222222222222222222",
"3333333333333333222222222222222222222222<<<<<<<<>>>=#@++.X+%=;;;ppiuw888666666666666666633333333666666662222222266666666<<<<<<<<",
"3333333333333333222222222222222222222222<<<<<<<<>>>=#@++.X+%=;;;ppiuw888666666666666666633333333666666662222222266666666<<<<<<<<",
"3333333333333333222222222222222222222222<<<<<<<<>>>=#@++.X+%=;;;ppiuw899666666666666666633333333666666662222222266666666<<<<<<<<",
"3333333333333333222222222222222222222222<<<<<<<<>>>=#@++.X+%=;;;ppiuw899666666666666666633333333666666662222222266666666<<<<<<<<",
"3333333333333333222222222222222222222222<<<<<<<<>>>-$@++.X+%=;;;ppiuw889666666666666666633333333666666662222222266666666<<<<<<<<",
"3333333333333333222222222222222222222222<<<<<<<<>>>-$@++.X+%=;;;ppiuw889666666666666666633333333666666662222222266666666<<<<<<<<",
"3333333333333333222222222222222222222222<<<<<<<<>>>-$@++.X+%=;;;ppiuw888666666666666666633333333666666662222222266666666<<<<<<<<",
"3333333333333333222222222222222222222222<<<<<<<<>>>-$@++.X+%=;;;ppiuw888666666666666666633333333666666662222222266666666<<<<<<<<",
">>>>>>>>>>>>>>>>>>>>>>>>,,,,,,,,>>>>>>>>11111111222>*&%%XX+%=;;;uuyr9666,,,,,,>,11112211<<<<<<<<,,,,,,,,,,,,,,,,>>>>>>>>>>>>>>>>",
">>>>>>>>>>>>>>>>>>>>>>>>,,,,,,,,>>>>>>>>11111111222>*&%%XX+%=;;;yytr9666,,,,,,>>11112222<<<<<<<<,,,,,,,,,,,,,,,,>>>>>>>>>>>>>>>>",
">>>>>>>>>>>>>>>>>>>>>>>>,,,,,,,,>>>>>>>>11111111221>*&%%XX+%=;;;tttr9666,,,,,>>>11111121<<<<<<<<,,,,,,,,,,,,,,,,>>>>>>>>>>>>>>>>",
"----====----====-=======;;;;;;;;--------::::::::>>>;&%$$XX+%=;;;treq6333-------->>>>>>>>::::::::;;;;;;;;;;;;;;;;----====----====",
"$$$$####$$$$$$$$$$$$####%%%%%%%%$$$$$$$$&&&&&&&&***&$$$$XX+%=;;;eq962,>>$$$$$$$$********&&&&&&&&%%%%%%%%%%%%%%%%$$$$####$$$$$$$$",
"@@@@@@@@@@@@@@@@@@@@@@@@########@@@@@@@@%%%%%%%%&&&%$$$$.X+%=;;;q863<>:;########&&&&&&&&$$$$$$$$################@@@@@@@@@@@@@@@@",
"++++++++++++++++++++++++########@@@@@@@@$$$$$$$$%%%$$$$$.X+%=;;;8641,::;@@@@@@@@%%%%%%%%$$$$$$$$#@##############++++++++++++++++",
"++++++++++++++++++++++++@@@@@@@@++++++++$$$$$$$$%%%$$$$$Xo@&=;;-642,>::;@@@@@@@@%%%%%%%%########@@@@@@@@@@@@@@@@++++++++++++++++",
"................................................        .o@%*--=%@Oo..  ........XXXXXXXX................                        ",
"XXXXXXXXXXXXXXXX..........XX..............X............Xo+$&=--=&#+oX...........XXXXXXXXXXXXXXXX................................",
"++++++++++++++++OOOOOO++OOOO+O++OOOO+O++OOOO+O++OOOOOOO+@$&*----=&#@+OOOOOOOOOOO++++++++++++++++OOOO+O++OOOOOOOOOOOOOOOOOOOOOOOO",
"%%%%%%%%%%%%%%%%$%$$%%%%$$$$%%%%$$$$%%%%$$$$%%%%$$$$$$$$%&*------*&%%$$$$$$$$$$$%%%%%%%%%%%%%%%%$$$$%%%%$$$$$$$$$$$$$$$$$$$$$$$$",
"*********************************************************=--------==************========****************************************",
";;;;;;;;;;;;;;;;--;---;;--;;--;---;;--;---;;--;---------------------------------;;;;;;;;;;;;;;;;--;;--;-------------------------",
";;;;;;;;;;;;;;;;-;;;-----;;;-----;;;-----;;;------------------------------------;;;;;;;;;;;;;;;;-;;;----------------------------",
";;;;;;;;;;;;;;;;;;;;-----;;;----;;;;----;;;;------------------------------------;;;;;;;;;;;;;;;;;;;;------------------====------"
};
